<svg width="25" height="25" viewBox="0 0 25 25" fill="none" xmlns="http://www.w3.org/2000/svg">
<path d="M24.5688 20.6896H0.431053C0.193017 20.6896 0 20.4966 0 20.2586V4.74139C0 4.50335 0.193017 4.31033 0.431053 4.31033H24.5689C24.8069 4.31033 24.9999 4.50335 24.9999 4.74139V20.2586C24.9999 20.4966 24.8069 20.6896 24.5688 20.6896Z" fill="#41479B"/>
<path d="M24.9999 4.74139C24.9999 4.50335 24.8069 4.31033 24.5688 4.31033H22.6404L14.6551 9.5421V4.31033H10.3447V9.5421L2.35946 4.31033H0.431053C0.193017 4.31033 0 4.50335 0 4.74139V5.85618L6.851 10.3448H0V14.6551H6.851L0 19.1438V20.2586C0 20.4966 0.193017 20.6896 0.431053 20.6896H2.35951L10.3448 15.4578V20.6896H14.6552V15.4578L22.6405 20.6896H24.5689C24.807 20.6896 25 20.4966 25 20.2586V19.1438L18.149 14.6552H24.9999V10.3448H18.1489L24.9999 5.85618V4.74139Z" fill="#F5F5F5"/>
<path d="M24.9999 11.2069H13.7931V4.31033H11.2068V11.2069H0V13.7931H11.2068V20.6896H13.7931V13.7931H24.9999V11.2069Z" fill="#FF4B55"/>
<path d="M8.73717 14.6551L0.0117188 20.319C0.0422362 20.5272 0.213866 20.6896 0.430516 20.6896H1.02421L10.3206 14.6552H8.73717V14.6551Z" fill="#FF4B55"/>
<path d="M16.9135 14.6551H15.3301L24.6129 20.6807C24.8293 20.6576 25 20.481 25 20.2585V19.9041L16.9135 14.6551Z" fill="#FF4B55"/>
<path d="M0 5.21723L7.89933 10.3448H9.48273L0.251122 4.35239C0.103662 4.42089 0 4.56811 0 4.7414V5.21723Z" fill="#FF4B55"/>
<path d="M16.2387 10.3448L24.9851 4.66728C24.9487 4.46601 24.7808 4.31039 24.569 4.31039H23.9515L14.6553 10.3448H16.2387Z" fill="#FF4B55"/>
</svg>
