<svg width="113" height="49" viewBox="0 0 113 49" fill="none" xmlns="http://www.w3.org/2000/svg">
<g clip-path="url(#clip0_109_2)">
<path d="M113.676 24.0093C111.087 27.3552 107.83 29.4215 103.665 29.3697C100.621 29.3317 98.9325 29.182 95.5382 28.0219C93.6787 27.3865 92.8313 27.2101 91.1769 26.5295C94.3937 27.3589 95.8673 27.9894 98.7903 27.4106C102.256 26.7245 104.356 25.348 106.13 22.5998C102.664 23.4768 100.516 23.649 96.9303 23.3373C94.7629 23.1488 93.5347 22.9157 91.4685 22.3006C93.6479 22.0678 94.881 21.8042 96.9423 21.1303C99.6808 20.235 101.181 19.494 103.487 17.8981C101.284 18.0681 100.028 18.0946 97.8191 18.0179C95.591 17.9406 94.3309 17.8255 92.1313 17.4985C94.5034 17.496 95.9163 17.2205 98.074 16.3397C99.5107 15.7532 100.287 15.3082 101.483 14.3862C99.5917 14.5152 98.5079 14.5073 96.6188 14.3506C95.2549 14.2376 94.4863 14.1314 93.148 13.8712C94.8459 13.805 95.8441 13.5783 97.3715 12.9121C98.4757 12.4306 99.0689 12.0664 99.9682 11.3182C98.4562 11.4587 97.5747 11.4406 96.0713 11.2383C95.0456 11.1003 94.4691 10.9766 93.4851 10.6834C94.4288 10.6378 94.9753 10.5257 95.8468 10.1995C96.9784 9.77564 97.5913 9.38453 98.4072 8.56556C97.4388 8.72335 96.869 8.7515 95.8871 8.68989C95.0791 8.63914 94.6203 8.5675 93.8409 8.37017C94.6672 8.21465 95.1403 8.01118 95.7919 7.53106C96.4172 7.07024 96.7201 6.71436 97.05 6.05259C96.2444 6.39641 95.7082 6.50296 94.8155 6.49664C94.1863 6.49209 93.8208 6.43696 93.2249 6.25683C93.6377 6.02714 93.8461 5.81413 94.0457 5.41771C94.2476 5.01674 94.2873 4.73184 94.2016 4.29892C94.1456 4.70073 94.0349 4.93886 93.7558 5.2579C93.2124 5.87895 92.5072 6.11724 91.6401 5.97268C92.0499 6.27512 92.3135 6.42052 92.7998 6.61203C93.8064 7.00854 94.5119 7.08912 95.5977 6.93166C94.8817 7.36955 94.3829 7.5426 93.524 7.65092C92.499 7.78022 91.8431 7.70056 90.8941 7.33129C91.5664 8.13652 92.1251 8.52973 93.1584 8.92514C93.9971 9.24612 94.5424 9.34103 95.4545 9.32477C94.5364 9.7147 93.9669 9.86988 92.9615 10.0041C91.6015 10.1856 90.7719 10.1469 89.4404 9.83978C90.6757 10.7305 91.5017 11.1381 93.0032 11.5979C94.2713 11.9863 95.0433 12.1142 96.383 12.1574C95.0499 12.5956 94.2522 12.7666 92.8419 12.9166C90.8763 13.1256 89.7081 13.0786 87.7715 12.7123C89.3309 13.6475 90.3071 14.0818 92.0818 14.6304C93.8723 15.1838 94.9505 15.382 96.8401 15.505C94.9923 16.0368 93.9116 16.2594 91.9898 16.504C89.3964 16.8341 87.8848 16.8701 85.2753 16.6638C87.9974 18.132 89.7891 18.7204 92.9272 19.1768C94.5744 19.4163 95.5307 19.469 97.1983 19.412C94.7678 20.2299 93.3849 20.5727 90.705 20.7307C88.5124 20.86 85.8035 20.6526 82.707 20.1713C85.8789 22.2773 88.8332 23.2336 91.8612 24.0522C96.5075 25.3083 99.0995 25.0994 103.568 24.2595C101.443 25.3758 99.9847 25.7746 97.5247 25.912C95.457 26.0274 94.4993 25.5509 92.2603 25.2771C90.343 25.0427 89.2894 24.8598 87.4011 25.0329C83.9941 25.3452 80.8312 26.491 78.1665 28.4138C80.6544 27.7971 83.2805 27.2529 85.8594 27.3589C88.7746 27.4786 90.3314 27.998 93.1541 28.8513C96.0335 29.7217 102.178 31.6313 106.848 30.2919C110.606 29.2141 112.203 27.1614 113.676 24.0093" stroke="#FCFDFE" stroke-width="0.3528" stroke-miterlimit="22.9256" stroke-linecap="round" stroke-linejoin="round"/>
<path fill-rule="evenodd" clip-rule="evenodd" d="M113.676 24.0093C111.087 27.3552 107.83 29.4215 103.665 29.3697C100.621 29.3317 98.9325 29.182 95.5382 28.0219C93.6787 27.3865 92.8313 27.2101 91.1769 26.5295C94.3937 27.3589 95.8673 27.9894 98.7903 27.4106C102.256 26.7245 104.356 25.348 106.13 22.5998C102.664 23.4768 100.516 23.649 96.9303 23.3373C94.7629 23.1488 93.5347 22.9157 91.4685 22.3006C93.6479 22.0678 94.881 21.8042 96.9423 21.1303C99.6808 20.235 101.181 19.494 103.487 17.8981C101.284 18.0681 100.028 18.0946 97.8191 18.0179C95.591 17.9406 94.3309 17.8255 92.1313 17.4985C94.5034 17.496 95.9163 17.2205 98.074 16.3397C99.5107 15.7532 100.287 15.3082 101.483 14.3862C99.5917 14.5152 98.5079 14.5073 96.6188 14.3506C95.2549 14.2376 94.4863 14.1314 93.148 13.8712C94.8459 13.805 95.8441 13.5783 97.3715 12.9121C98.4757 12.4306 99.0689 12.0664 99.9682 11.3182C98.4562 11.4587 97.5747 11.4406 96.0713 11.2383C95.0456 11.1003 94.4691 10.9766 93.4851 10.6834C94.4288 10.6378 94.9753 10.5257 95.8468 10.1995C96.9784 9.77564 97.5913 9.38453 98.4072 8.56556C97.4388 8.72335 96.869 8.7515 95.8871 8.68989C95.0791 8.63914 94.6203 8.5675 93.8409 8.37017C94.6672 8.21465 95.1403 8.01118 95.7919 7.53106C96.4172 7.07024 96.7201 6.71436 97.05 6.05259C96.2444 6.39641 95.7082 6.50296 94.8155 6.49664C94.1863 6.49208 93.8208 6.43696 93.2249 6.25683C93.6377 6.02714 93.8461 5.81413 94.0457 5.41771C94.2476 5.01674 94.2873 4.73184 94.2016 4.29892C94.1456 4.70073 94.0349 4.93886 93.7558 5.2579C93.2124 5.87895 92.5072 6.11724 91.6401 5.97268C92.0499 6.27512 92.3135 6.42052 92.7998 6.61203C93.8064 7.00854 94.5119 7.08912 95.5977 6.93166C94.8817 7.36955 94.3829 7.5426 93.524 7.65092C92.499 7.78022 91.8431 7.70056 90.8941 7.33129C91.5664 8.13652 92.1251 8.52973 93.1584 8.92514C93.9971 9.24612 94.5424 9.34103 95.4545 9.32477C94.5364 9.7147 93.9669 9.86987 92.9615 10.0041C91.6015 10.1856 90.7719 10.1469 89.4404 9.83978C90.6757 10.7305 91.5017 11.1381 93.0032 11.5979C94.2713 11.9863 95.0433 12.1142 96.383 12.1574C95.0499 12.5956 94.2522 12.7666 92.8419 12.9166C90.8763 13.1256 89.7081 13.0786 87.7715 12.7123C89.3309 13.6475 90.3071 14.0818 92.0818 14.6304C93.8723 15.1838 94.9505 15.382 96.8401 15.505C94.9923 16.0368 93.9116 16.2594 91.9898 16.504C89.3964 16.8341 87.8848 16.8701 85.2753 16.6638C87.9974 18.132 89.7891 18.7204 92.9272 19.1768C94.5744 19.4163 95.5307 19.469 97.1983 19.412C94.7678 20.2299 93.3849 20.5727 90.705 20.7307C88.5124 20.86 85.8035 20.6526 82.707 20.1713C85.8789 22.2773 88.8332 23.2336 91.8612 24.0522C96.5075 25.3083 99.0995 25.0994 103.568 24.2595C101.443 25.3758 99.9847 25.7746 97.5247 25.912C95.457 26.0274 94.4993 25.5509 92.2603 25.2771C90.343 25.0427 89.2894 24.8598 87.4011 25.0329C83.9941 25.3452 80.8312 26.491 78.1665 28.4138C80.6544 27.7971 83.2805 27.2529 85.8594 27.3589C88.7746 27.4786 90.3314 27.998 93.1541 28.8513C96.0335 29.7217 102.178 31.6313 106.848 30.2919C110.606 29.2141 112.203 27.1614 113.676 24.0093Z" fill="#FCFDFE"/>
<path fill-rule="evenodd" clip-rule="evenodd" d="M92.8708 4.47154L94.0506 3.07265L94.96 4.47154L94.7339 2.88788L96.6592 3.44749L95.1333 2.42024L97.1736 1.87875L95.0617 1.88836L96.2624 0.499164L94.5527 1.54125L94.3519 -0.0457764L93.8445 1.54125L92.3361 0.499164L93.2683 1.88836L91.1582 1.87875L93.0939 2.42024L91.3693 3.44749L93.4028 2.88788L92.8708 4.47154Z" fill="#FCFDFE"/>
<path fill-rule="evenodd" clip-rule="evenodd" d="M13.941 35.4026L19.7908 25.5149L19.7445 35.4026H24.4128L24.258 19.3743H19.2042L9.37988 35.4026H13.941Z" fill="#FCFDFE"/>
<path fill-rule="evenodd" clip-rule="evenodd" d="M25.0693 35.4026H29.6299L34.3395 26.7363V35.4026H36.2818L35.0766 32.2312L38.9248 32.2718V19.3743H34.4024L29.6078 28.0402V19.3743H25.0693V35.4026Z" fill="#FCFDFE"/>
<path fill-rule="evenodd" clip-rule="evenodd" d="M44.1315 33.5699V28.8833H48.4127L48.4196 32.2312H50.8076L50.8734 35.4026H51.7938L52.972 33.5044V19.3743H48.4127V25.2417H44.1315V19.3743H39.5723V32.2383L40.9595 32.2312L42.1102 35.4026H43.4459L44.1315 33.5699Z" fill="#FCFDFE"/>
<path fill-rule="evenodd" clip-rule="evenodd" d="M8.09296 26.8713C7.24349 26.8713 6.04396 26.663 6.04396 24.7805C6.04396 22.9187 7.3689 22.6898 8.09296 22.6898H8.5933V26.8713H8.09296ZM5.13721 35.4026L8.56411 29.7955L8.5933 30.3268V35.3924L13.1526 27.9478V19.3743H7.63739C6.46231 19.3743 1.60614 19.4516 1.60614 24.6644C1.60614 26.8923 2.70278 28.7662 5.07256 29.2792L0.675781 35.4026H5.13721Z" fill="#FCFDFE"/>
<path fill-rule="evenodd" clip-rule="evenodd" d="M58.2149 32.2467V29.4375L59.9328 32.2312L63.5016 32.27L64.0188 31.4317L61.4974 27.4265L66.4513 19.3743H61.9225L58.2149 25.4018V19.3743H53.6558V32.2467H58.2149Z" fill="#FCFDFE"/>
<path fill-rule="evenodd" clip-rule="evenodd" d="M70.3058 30.0321H72.2299V26.8607L70.3058 30.0321ZM67.4585 32.5878C67.8634 32.7484 68.4444 33.1116 68.4444 33.1116L68.7795 32.5853H72.2199L72.2434 35.4182H73.2863L75.2472 32.2312L76.807 32.2711L76.8044 19.3743H72.1822L64.2959 32.2408L65.662 32.2312C65.662 32.2312 66.7948 32.3244 67.4585 32.5878Z" fill="#FCFDFE"/>
<path fill-rule="evenodd" clip-rule="evenodd" d="M80.791 32.15C81.9085 32.15 82.541 31.3866 82.541 30.5761C82.541 29.7051 81.8572 29.0022 80.791 29.0022C79.7243 29.0022 79.0405 29.7051 79.0405 30.5761C79.0405 31.3865 79.6729 32.15 80.791 32.15Z" fill="#FCFDFE"/>
<path fill-rule="evenodd" clip-rule="evenodd" d="M85.4961 32.15C86.6141 32.15 87.2466 31.3865 87.2466 30.5761C87.2466 29.7051 86.5628 29.0022 85.4961 29.0022C84.4294 29.0022 83.7456 29.7051 83.7456 30.5761C83.7456 31.3865 84.378 32.15 85.4961 32.15Z" fill="#FCFDFE"/>
<path fill-rule="evenodd" clip-rule="evenodd" d="M43.2409 48.8367L49.5582 32.8896H44.9211L42.7713 38.7328L40.6176 32.8896H36.022L40.4185 44.8622L38.8379 48.8367H43.2409Z" fill="#FCFDFE"/>
<path fill-rule="evenodd" clip-rule="evenodd" d="M85.2966 48.8367V32.8896H80.9502V48.8367H85.2966Z" fill="#FCFDFE"/>
<path fill-rule="evenodd" clip-rule="evenodd" d="M64.0368 36.157C65.192 36.157 65.9392 36.7288 65.9392 38.1692C65.9392 40.0707 64.6725 40.2048 64.0368 40.2048H63.6773V36.157H64.0368ZM63.6773 48.8367V43.4722H64.5922C69.3087 43.4722 70.4318 40.3602 70.4318 38.1692C70.4318 36.024 69.3376 32.8896 64.5922 32.8896H59.1323V48.8367H63.6773Z" fill="#FCFDFE"/>
<path fill-rule="evenodd" clip-rule="evenodd" d="M90.7417 48.8367V42.3344H94.4335V48.8367H99.0531V32.8896H94.4335V38.7417H90.7417V32.8896H86.2056V48.8367H90.7417Z" fill="#FCFDFE"/>
<path fill-rule="evenodd" clip-rule="evenodd" d="M73.7096 43.496H75.6337V40.3247L73.7096 43.496ZM70.4074 48.8666L72.1833 46.0492H75.6237L75.6472 48.8821H80.2115L80.2082 32.9461H75.586L65.7617 48.8666H70.4074Z" fill="#FCFDFE"/>
<path fill-rule="evenodd" clip-rule="evenodd" d="M50.2887 48.9541V42.989L53.7719 48.7448L58.502 48.7829L53.5712 40.9779L58.525 32.9256H53.9963L50.2887 38.9533V32.9256L45.7295 44.3969V48.9541H50.2887Z" fill="#FCFDFE"/>
<path fill-rule="evenodd" clip-rule="evenodd" d="M99.665 48.7838H104.226L108.935 40.1175V48.7838H113.52V32.907H108.998L104.203 41.4214V32.907H99.665V48.7838Z" fill="#FCFDFE"/>
</g>
<defs>
<clipPath id="clip0_109_2">
<rect width="113" height="49" fill="white"/>
</clipPath>
</defs>
</svg>
