<svg width="74" height="74" viewBox="0 0 74 74" fill="none" xmlns="http://www.w3.org/2000/svg">
<path d="M64.75 46.3717V13.875C64.75 10.6874 62.1563 8.09375 58.9688 8.09375H56.6562V5.78125C56.6562 3.86847 55.1003 2.3125 53.1875 2.3125C51.2747 2.3125 49.7188 3.86847 49.7188 5.78125V8.09375H43.9375V5.78125C43.9375 3.86847 42.3815 2.3125 40.4688 2.3125C38.556 2.3125 37 3.86847 37 5.78125V8.09375H30.0625V5.78125C30.0625 3.86847 28.5065 2.3125 26.5938 2.3125C24.681 2.3125 23.125 3.86847 23.125 5.78125V8.09375H17.3438V5.78125C17.3438 3.86847 15.7878 2.3125 13.875 2.3125C11.9622 2.3125 10.4062 3.86847 10.4062 5.78125V8.09375H8.09375C4.90615 8.09375 2.3125 10.6874 2.3125 13.875V60.125C2.3125 63.3126 4.90615 65.9062 8.09375 65.9062H46.9709C49.3744 70.0466 53.8461 72.8438 58.9688 72.8438C66.6199 72.8438 72.8438 66.6199 72.8438 58.9688C72.8438 53.3824 69.5188 48.5693 64.75 46.3717ZM52.0312 5.78125C52.0312 5.14328 52.5495 4.625 53.1875 4.625C53.8255 4.625 54.3438 5.14328 54.3438 5.78125V12.7188C54.3438 13.3567 53.8255 13.875 53.1875 13.875C52.5495 13.875 52.0312 13.3567 52.0312 12.7188V5.78125ZM39.3125 5.78125C39.3125 5.14328 39.8308 4.625 40.4688 4.625C41.1067 4.625 41.625 5.14328 41.625 5.78125V12.7188C41.625 13.3567 41.1067 13.875 40.4688 13.875C39.8308 13.875 39.3125 13.3567 39.3125 12.7188V5.78125ZM25.4375 5.78125C25.4375 5.14328 25.9558 4.625 26.5938 4.625C27.2317 4.625 27.75 5.14328 27.75 5.78125V12.7188C27.75 13.3567 27.2317 13.875 26.5938 13.875C25.9558 13.875 25.4375 13.3567 25.4375 12.7188V5.78125ZM12.7188 5.78125C12.7188 5.14328 13.237 4.625 13.875 4.625C14.513 4.625 15.0312 5.14328 15.0312 5.78125V12.7188C15.0312 13.3567 14.513 13.875 13.875 13.875C13.237 13.875 12.7188 13.3567 12.7188 12.7188V5.78125ZM8.09375 10.4062H10.4062V12.7188C10.4062 14.6315 11.9622 16.1875 13.875 16.1875C15.7878 16.1875 17.3438 14.6315 17.3438 12.7188V10.4062H23.125V12.7188C23.125 14.6315 24.681 16.1875 26.5938 16.1875C28.5065 16.1875 30.0625 14.6315 30.0625 12.7188V10.4062H37V12.7188C37 14.6315 38.556 16.1875 40.4688 16.1875C42.3815 16.1875 43.9375 14.6315 43.9375 12.7188V10.4062H49.7188V12.7188C49.7188 14.6315 51.2747 16.1875 53.1875 16.1875C55.1003 16.1875 56.6562 14.6315 56.6562 12.7188V10.4062H58.9688C60.8815 10.4062 62.4375 11.9622 62.4375 13.875V19.6562H4.625V13.875C4.625 11.9622 6.18097 10.4062 8.09375 10.4062ZM8.09375 63.5938C6.18097 63.5938 4.625 62.0378 4.625 60.125V21.9688H62.4375V45.5503C61.3266 45.2628 60.1684 45.0938 58.9688 45.0938C58.1793 45.0938 57.41 45.1753 56.6562 45.3026V39.3125C56.6562 38.6734 56.1391 38.1562 55.5 38.1562H48.5625C47.9234 38.1562 47.4062 38.6734 47.4062 39.3125V46.25C47.4062 46.8891 47.9234 47.4062 48.5625 47.4062H51.3154C47.5701 49.8934 45.0938 54.1454 45.0938 58.9688C45.0938 60.5923 45.3885 62.1446 45.9031 63.5938H8.09375ZM54.3438 45.0938H49.7188V40.4688H54.3438V45.0938ZM58.9688 70.5312C52.5936 70.5312 47.4062 65.3439 47.4062 58.9688C47.4062 52.5936 52.5936 47.4062 58.9688 47.4062C65.3439 47.4062 70.5312 52.5936 70.5312 58.9688C70.5312 65.3439 65.3439 70.5312 58.9688 70.5312Z" fill="#3A9943"/>
<path d="M60.125 56.977V49.7188H57.8125V56.977C57.1242 57.3776 56.6562 58.1149 56.6562 58.9688C56.6562 59.0858 56.6739 59.1981 56.6907 59.3105L52.4648 62.6904L53.9102 64.4971L58.1323 61.1193C58.3924 61.2206 58.6729 61.2812 58.9688 61.2812C60.2459 61.2812 61.2812 60.2459 61.2812 58.9688C61.2812 58.1149 60.8133 57.3776 60.125 56.977Z" fill="#3A9943"/>
<path d="M17.3438 25.4375H10.4062C9.76716 25.4375 9.25 25.9547 9.25 26.5938V33.5312C9.25 34.1703 9.76716 34.6875 10.4062 34.6875H17.3438C17.9828 34.6875 18.5 34.1703 18.5 33.5312V26.5938C18.5 25.9547 17.9828 25.4375 17.3438 25.4375ZM16.1875 32.375H11.5625V27.75H16.1875V32.375Z" fill="#3A9943"/>
<path d="M30.0625 25.4375H23.125C22.4859 25.4375 21.9688 25.9547 21.9688 26.5938V33.5312C21.9688 34.1703 22.4859 34.6875 23.125 34.6875H30.0625C30.7016 34.6875 31.2188 34.1703 31.2188 33.5312V26.5938C31.2188 25.9547 30.7016 25.4375 30.0625 25.4375ZM28.9062 32.375H24.2812V27.75H28.9062V32.375Z" fill="#3A9943"/>
<path d="M42.7812 25.4375H35.8438C35.2047 25.4375 34.6875 25.9547 34.6875 26.5938V33.5312C34.6875 34.1703 35.2047 34.6875 35.8438 34.6875H42.7812C43.4203 34.6875 43.9375 34.1703 43.9375 33.5312V26.5938C43.9375 25.9547 43.4203 25.4375 42.7812 25.4375ZM41.625 32.375H37V27.75H41.625V32.375Z" fill="#3A9943"/>
<path d="M48.5625 34.6875H55.5C56.1391 34.6875 56.6562 34.1703 56.6562 33.5312V26.5938C56.6562 25.9547 56.1391 25.4375 55.5 25.4375H48.5625C47.9234 25.4375 47.4062 25.9547 47.4062 26.5938V33.5312C47.4062 34.1703 47.9234 34.6875 48.5625 34.6875ZM49.7188 27.75H54.3438V32.375H49.7188V27.75Z" fill="#3A9943"/>
<path d="M17.3438 38.1562H10.4062C9.76716 38.1562 9.25 38.6734 9.25 39.3125V46.25C9.25 46.8891 9.76716 47.4062 10.4062 47.4062H17.3438C17.9828 47.4062 18.5 46.8891 18.5 46.25V39.3125C18.5 38.6734 17.9828 38.1562 17.3438 38.1562ZM16.1875 45.0938H11.5625V40.4688H16.1875V45.0938Z" fill="#3A9943"/>
<path d="M30.0625 38.1562H23.125C22.4859 38.1562 21.9688 38.6734 21.9688 39.3125V46.25C21.9688 46.8891 22.4859 47.4062 23.125 47.4062H30.0625C30.7016 47.4062 31.2188 46.8891 31.2188 46.25V39.3125C31.2188 38.6734 30.7016 38.1562 30.0625 38.1562ZM28.9062 45.0938H24.2812V40.4688H28.9062V45.0938Z" fill="#3A9943"/>
<path d="M42.7812 38.1562H35.8438C35.2047 38.1562 34.6875 38.6734 34.6875 39.3125V46.25C34.6875 46.8891 35.2047 47.4062 35.8438 47.4062H42.7812C43.4203 47.4062 43.9375 46.8891 43.9375 46.25V39.3125C43.9375 38.6734 43.4203 38.1562 42.7812 38.1562ZM41.625 45.0938H37V40.4688H41.625V45.0938Z" fill="#3A9943"/>
<path d="M17.3438 50.875H10.4062C9.76716 50.875 9.25 51.3922 9.25 52.0312V58.9688C9.25 59.6078 9.76716 60.125 10.4062 60.125H17.3438C17.9828 60.125 18.5 59.6078 18.5 58.9688V52.0312C18.5 51.3922 17.9828 50.875 17.3438 50.875ZM16.1875 57.8125H11.5625V53.1875H16.1875V57.8125Z" fill="#3A9943"/>
<path d="M30.0625 50.875H23.125C22.4859 50.875 21.9688 51.3922 21.9688 52.0312V58.9688C21.9688 59.6078 22.4859 60.125 23.125 60.125H30.0625C30.7016 60.125 31.2188 59.6078 31.2188 58.9688V52.0312C31.2188 51.3922 30.7016 50.875 30.0625 50.875ZM28.9062 57.8125H24.2812V53.1875H28.9062V57.8125Z" fill="#3A9943"/>
<path d="M42.7812 50.875H35.8438C35.2047 50.875 34.6875 51.3922 34.6875 52.0312V58.9688C34.6875 59.6078 35.2047 60.125 35.8438 60.125H42.7812C43.4203 60.125 43.9375 59.6078 43.9375 58.9688V52.0312C43.9375 51.3922 43.4203 50.875 42.7812 50.875ZM41.625 57.8125H37V53.1875H41.625V57.8125Z" fill="#3A9943"/>
</svg>
