<svg width="74" height="74" viewBox="0 0 74 74" fill="none" xmlns="http://www.w3.org/2000/svg">
<path d="M14.1348 65.0004C13.7035 65.8222 12.6832 66.1397 11.8622 65.7083C11.0404 65.277 10.7228 64.2575 11.1543 63.4358L23.1434 40.6045C23.4216 40.0745 23.2177 39.4192 22.6877 39.1409C22.1575 38.8626 21.5022 39.0664 21.2239 39.5966L18.4002 44.9738H9.61312C9.01433 44.9738 8.52914 45.4592 8.52914 46.0578C8.52914 46.6565 9.01433 47.1418 9.61312 47.1418H17.2616L9.23459 62.428C8.42551 63.9694 8.76863 65.8142 9.95421 66.9729L7.03021 72.4018C6.74635 72.9289 6.94349 73.5862 7.47059 73.8701C7.6342 73.9581 7.81024 73.9999 7.98368 73.9999C8.36958 73.9999 8.74319 73.7932 8.93903 73.4297L11.8694 67.9888C12.1246 68.0411 12.382 68.0685 12.638 68.0683C14.0245 68.0682 15.3663 67.3182 16.0543 66.0079L25.9613 47.1415H35.9996V52.2386C35.9996 52.8372 36.4848 53.3225 37.0836 53.3225C37.6823 53.3225 38.1675 52.8372 38.1675 52.2386V47.1415H48.3276L50.2143 50.7337C50.4082 51.1028 50.7849 51.3138 51.1747 51.3138C51.3447 51.3138 51.5171 51.2738 51.678 51.1894C52.208 50.911 52.4121 50.2557 52.1336 49.7257L49.9368 45.5432C49.9363 45.542 49.9357 45.5408 49.935 45.5397L42.7693 31.8963C43.7352 31.1921 44.5639 30.3118 45.2095 29.3029L59.881 57.2373C58.7282 57.4467 57.6964 58.0074 56.9025 58.8059L54.3301 53.9082C54.0516 53.3782 53.3965 53.1737 52.8665 53.4526C52.3365 53.731 52.1325 54.3863 52.4109 54.9163L55.5728 60.9364C55.3739 61.5114 55.2645 62.1277 55.2645 62.7694C55.2645 65.8706 57.7875 68.3935 60.8887 68.3935C61.3749 68.3935 61.8468 68.3314 62.2971 68.2149L65.061 73.3466C65.2568 73.7102 65.6303 73.9168 66.0163 73.9168C66.1898 73.9168 66.366 73.875 66.5294 73.787C67.0565 73.5031 67.2537 72.8456 66.9698 72.3187L64.2528 67.2738C65.6238 66.2472 66.5128 64.6103 66.5128 62.7695C66.5128 60.1879 64.7638 58.0085 62.389 57.3502L57.0275 47.1418H65.1182C65.717 47.1418 66.2022 46.6565 66.2022 46.0578C66.2022 45.4592 65.717 44.9738 65.1182 44.9738H55.8886L46.3426 26.7985C46.5839 25.9592 46.716 25.0741 46.716 24.1582V20.7814C46.716 20.1827 46.2308 19.6974 45.632 19.6974C45.0332 19.6974 44.548 20.1827 44.548 20.7814V24.1582C44.548 28.2414 41.2262 31.5633 37.1431 31.5633C33.06 31.5633 29.7381 28.2414 29.7381 24.1582V12.7781C29.7381 12.5881 29.8926 12.4334 30.0828 12.4334H44.2036C44.3936 12.4334 44.5481 12.5881 44.5481 12.7781V16.0568C44.5481 16.6555 45.0333 17.1408 45.6321 17.1408C46.2309 17.1408 46.7161 16.6555 46.7161 16.0568V12.7781C46.7161 11.3927 45.5891 10.2655 44.2036 10.2655H41.344V4.20094C41.3439 1.88454 39.4593 0 37.1431 0C34.8267 0 32.9422 1.88454 32.9422 4.20094V10.2655H30.0826C28.6971 10.2655 27.5699 11.3927 27.5699 12.7781V24.1584C27.5699 25.0747 27.702 25.9604 27.9436 26.8001L23.42 35.4143C23.1418 35.9443 23.3457 36.5996 23.8757 36.8779C24.0366 36.9624 24.209 37.0024 24.379 37.0024C24.7688 37.0024 25.1457 36.7914 25.3395 36.4221L29.0771 29.3045C29.723 30.3132 30.5516 31.1933 31.5175 31.8973L14.1348 65.0004ZM35.1101 4.20094C35.1101 3.07996 36.0223 2.16796 37.1431 2.16796C38.2641 2.16796 39.1759 3.07996 39.1759 4.20094V10.2655H35.11V4.20094H35.1101ZM47.1889 44.9738H38.1674V39.8768C38.1674 39.2782 37.6822 38.7928 37.0834 38.7928C36.4846 38.7928 35.9994 39.2782 35.9994 39.8768V44.9738H27.0996L33.4031 32.97C34.5527 33.4596 35.8166 33.7312 37.143 33.7312C38.4697 33.7312 39.734 33.4595 40.8838 32.9694L47.1889 44.9738ZM57.4325 62.7695C57.4325 60.8637 58.983 59.3133 60.8887 59.3133C62.7943 59.3133 64.3447 60.8637 64.3447 62.7695C64.3447 64.6753 62.7943 66.2257 60.8887 66.2257C58.9829 66.2257 57.4325 64.6753 57.4325 62.7695Z" fill="#3A9943"/>
<path d="M32.9385 23.4958C32.9385 25.8142 34.8246 27.7002 37.143 27.7002C39.4613 27.7002 41.3474 25.8141 41.3474 23.4958C41.3474 21.1775 39.4613 19.2914 37.143 19.2914C34.8246 19.2914 32.9385 21.1774 32.9385 23.4958V23.4958ZM39.1795 23.4958C39.1795 24.6188 38.266 25.5322 37.143 25.5322C36.02 25.5322 35.1064 24.6187 35.1064 23.4958C35.1064 22.3729 36.02 21.4594 37.143 21.4594C38.266 21.4594 39.1795 22.3728 39.1795 23.4958Z" fill="#3A9943"/>
</svg>
