<svg width="74" height="74" viewBox="0 0 74 74" fill="none" xmlns="http://www.w3.org/2000/svg">
<g clip-path="url(#clip0_98_317)">
<path d="M12.3332 66.6C14.3477 66.6071 16.3202 66.0235 18.0065 64.9214C18.2943 65.0782 18.6016 65.196 18.9204 65.2717C19.2996 67.3018 20.0632 69.2408 21.17 70.9845C21.3996 71.3285 21.7863 71.5346 22.1999 71.5333C25.2956 71.3364 28.2076 69.9962 30.3707 67.7729C31.6137 70.4707 33.7779 72.637 36.4745 73.8828C36.8072 74.0395 37.1925 74.0395 37.5253 73.8828C40.2218 72.637 42.386 70.4707 43.629 67.7729C45.7921 69.9962 48.7042 71.3364 51.7999 71.5333C52.2121 71.5334 52.5972 71.3274 52.826 70.9845C53.9328 69.2408 54.6964 67.3018 55.0756 65.2717C55.3945 65.1962 55.7019 65.0784 55.9895 64.9214C57.6769 66.0242 59.6507 66.6078 61.6665 66.6C65.1679 66.5418 68.1909 64.1329 69.0295 60.733C69.1652 60.1916 68.9204 59.6266 68.4326 59.3554C64.4671 57.2138 61.0179 54.231 58.3267 50.616C59.9283 49.4743 61.0935 47.8214 61.6308 45.9293C61.777 45.3421 61.4755 44.7355 60.9191 44.4974C57.9365 43.3598 55.2792 41.5064 53.1812 39.1003C55.3246 38.5277 57.0735 36.9797 57.9024 34.9218C58.1058 34.3133 57.8087 33.6505 57.2191 33.3974C53.7759 31.9077 50.7184 29.6513 48.2799 26.8003C50.3692 26.1714 52.0757 24.6548 52.9456 22.6538C53.193 22.0327 52.9003 21.3275 52.2858 21.0641C49.0681 19.6869 46.0908 17.805 43.4662 15.4894L43.0124 12.7144L46.3165 9.3363C46.8251 8.81516 46.9981 8.05258 46.7642 7.36297C46.5409 6.68233 45.954 6.18502 45.2459 6.0766L40.7381 5.38963L38.7191 1.09887C38.4091 0.428869 37.7381 0 36.9999 0C36.2616 0 35.5906 0.428869 35.2806 1.09887L33.2616 5.38963L28.755 6.07783C28.0465 6.18583 27.459 6.68322 27.2356 7.3642C27.0022 8.05406 27.1757 8.81652 27.6845 9.33753L30.9874 12.7144L30.5335 15.4894C27.909 17.805 24.9317 19.6869 21.7139 21.0641C21.0994 21.3275 20.8068 22.0327 21.0541 22.6538C21.9251 24.654 23.6312 26.1702 25.7198 26.8003C23.281 29.6511 20.2236 31.9074 16.7806 33.3974C16.191 33.6505 15.8939 34.3133 16.0973 34.9218C16.9177 36.9855 18.6649 38.5401 20.8099 39.1151C18.7123 41.5151 16.0584 43.3644 13.0806 44.5011C12.5247 44.7396 12.2238 45.3461 12.3702 45.933C12.9061 47.8254 14.0711 49.4785 15.6731 50.6197C12.9815 54.2344 9.53234 57.2171 5.56713 59.3591C5.07937 59.6303 4.83455 60.1953 4.9702 60.7367C5.80983 64.1354 8.83278 66.5426 12.3332 66.6ZM19.7332 62.9C19.052 62.9 18.4999 62.3478 18.4999 61.6666C18.4999 60.9855 19.052 60.4333 19.7332 60.4333C20.4143 60.4333 20.9665 60.9855 20.9665 61.6666C20.9665 62.3478 20.4143 62.9 19.7332 62.9ZM53.0332 61.6666C53.0332 60.9855 53.5854 60.4333 54.2665 60.4333C54.9477 60.4333 55.4999 60.9855 55.4999 61.6666C55.4999 62.3478 54.9477 62.9 54.2665 62.9C53.5854 62.9 53.0332 62.3478 53.0332 61.6666ZM30.1734 8.3558L33.9326 7.78353C34.5615 7.68687 35.1006 7.28242 35.3694 6.7056L36.9999 3.2387L38.6303 6.70437C38.8983 7.28147 39.4371 7.68644 40.0659 7.78353L43.8264 8.3558L41.06 11.1851C40.6316 11.6278 40.4373 12.2468 40.5358 12.855L41.1759 16.7758L37.9113 14.9751C37.3447 14.6593 36.655 14.6593 36.0884 14.9751L32.8238 16.7733L33.4651 12.8513C33.5624 12.2434 33.3677 11.6252 32.9397 11.1826L30.1734 8.3558ZM23.9623 22.7587C26.2675 21.6709 28.4425 20.3262 30.4459 18.7503C30.5796 19.0008 30.768 19.2179 30.9972 19.3855C31.5859 19.8066 32.3648 19.8498 32.9965 19.4965L36.9999 17.2888L41.0033 19.4965C41.6352 19.8486 42.4134 19.8054 43.0025 19.3855C43.2314 19.2181 43.4198 19.0015 43.5538 18.7516C45.5573 20.3264 47.7318 21.6705 50.0362 22.7587C49.0908 24.0206 47.5701 24.7172 45.997 24.6087C44.7675 24.502 43.5725 24.1466 42.4845 23.564C42.1061 23.3784 41.6591 23.3989 41.2993 23.6183C40.937 23.8388 40.7113 24.2279 40.6999 24.6518C40.5545 25.8557 39.9957 26.9717 39.1187 27.8092C37.8494 26.9095 36.1503 26.9095 34.881 27.8092C34.0078 26.975 33.4494 25.865 33.2999 24.6666C33.3001 24.2391 33.0789 23.842 32.7153 23.6172C32.3517 23.3923 31.8976 23.3717 31.5152 23.5628C30.4276 24.1451 29.233 24.5005 28.0039 24.6074C26.4303 24.7169 24.9086 24.0208 23.9623 22.7587ZM38.2332 30.8333C38.2332 31.5145 37.681 32.0666 36.9999 32.0666C36.3187 32.0666 35.7665 31.5145 35.7665 30.8333C35.7665 30.1521 36.3187 29.6 36.9999 29.6C37.681 29.6 38.2332 30.1521 38.2332 30.8333ZM19.0006 35.0945C22.836 33.1878 26.1726 30.4108 28.7439 26.9853C29.5739 26.8857 30.3894 26.6891 31.1736 26.3995C31.64 27.7191 32.4185 28.9065 33.4429 29.8602C33.006 31.3715 33.5726 32.9939 34.8554 33.9046C36.1382 34.8154 37.8566 34.8154 39.1394 33.9046C40.4222 32.9939 40.9887 31.3715 40.5519 29.8602C41.5763 28.9065 42.3548 27.7191 42.8212 26.3995C43.6054 26.6891 44.4209 26.8857 45.2509 26.9853C47.8218 30.4109 51.1585 33.1875 54.9942 35.0932C53.9808 36.2907 52.493 36.9832 50.9242 36.9876C50.8054 37.0006 50.6859 37.0047 50.5665 37C48.2059 37.1233 45.8823 36.374 44.0385 34.8947C43.7172 34.5736 43.2453 34.4551 42.8104 34.5863C42.3755 34.7175 42.048 35.0772 41.9579 35.5224C41.9468 35.5755 40.8676 40.6593 36.9999 42.9927C33.1321 40.6593 32.053 35.5755 32.0419 35.5249C31.9517 35.0827 31.6272 34.7251 31.1958 34.5925C30.7615 34.4588 30.2888 34.5723 29.9625 34.8885C28.1196 36.371 25.7952 37.1227 23.4332 37C23.2787 37.0035 23.1241 36.9957 22.9707 36.9765C21.434 36.9676 19.9803 36.2784 19.0006 35.0945ZM23.5948 39.4666C25.8847 39.4804 28.1391 38.9 30.1376 37.7819C31.186 41.0645 33.4416 43.8267 36.4486 45.51C36.7956 45.6834 37.2041 45.6834 37.5512 45.51C40.5581 43.8267 42.8137 41.0645 43.8621 37.7819C45.8606 38.9 48.115 39.4804 50.405 39.4666C52.5224 42.4955 55.4564 44.8606 58.8656 46.287C58.3166 47.5189 57.3223 48.4977 56.082 49.0274C55.5007 49.2396 54.8853 49.3433 54.2665 49.3333C52.9875 49.3432 51.7155 49.1432 50.5012 48.7413C50.5418 48.5299 50.5637 48.3153 50.5665 48.1C50.576 46.2989 49.2872 44.7527 47.514 44.4376C45.7407 44.1224 43.9981 45.13 43.3865 46.824C42.7748 48.5181 43.4719 50.4064 45.0375 51.2968C44.5965 52.6725 43.9059 53.9552 43 55.0806C41.0851 53.6133 39.4074 51.8599 38.026 49.8821C37.7841 49.5587 37.4038 49.3682 36.9999 49.3682C36.5959 49.3682 36.2157 49.5587 35.9737 49.8821C34.5923 51.8599 32.9146 53.6133 30.9997 55.0806C30.0939 53.9552 29.4032 52.6725 28.9622 51.2968C30.6245 50.3723 31.322 48.3431 30.5794 46.592C29.8367 44.8409 27.8931 43.9318 26.073 44.4843C24.253 45.0367 23.1425 46.8729 23.4986 48.7413C22.2843 49.1432 21.0122 49.3432 19.7332 49.3333C19.1131 49.3412 18.4969 49.235 17.9153 49.02C16.6757 48.4907 15.6822 47.5122 15.1341 46.2808C18.5425 44.8562 21.4765 42.4932 23.5948 39.4666ZM46.8665 49.3333C46.1854 49.3333 45.6332 48.7811 45.6332 48.1C45.6332 47.4188 46.1854 46.8666 46.8665 46.8666C47.5477 46.8666 48.0999 47.4188 48.0999 48.1C48.0999 48.7811 47.5477 49.3333 46.8665 49.3333ZM25.8999 48.1C25.8999 47.4188 26.452 46.8666 27.1332 46.8666C27.8143 46.8666 28.3665 47.4188 28.3665 48.1C28.3665 48.7811 27.8143 49.3333 27.1332 49.3333C26.452 49.3333 25.8999 48.7811 25.8999 48.1ZM18.0065 51.5903C18.5725 51.7241 19.1516 51.7944 19.7332 51.8C21.4431 51.8099 23.1403 51.5043 24.7393 50.8984C25.2448 51.3348 25.8596 51.6252 26.5178 51.7383C27.1667 53.9469 28.3493 55.9619 29.9612 57.6053C30.377 58.0211 31.0285 58.0857 31.5177 57.7594C33.574 56.3207 35.4193 54.6017 36.9999 52.6522C38.5804 54.6017 40.4257 56.3207 42.482 57.7594C42.9713 58.0857 43.6228 58.0211 44.0385 57.6053C45.6509 55.962 46.8339 53.9471 47.4832 51.7383C48.1413 51.6252 48.7562 51.3348 49.2617 50.8984C50.8603 51.5042 52.557 51.8098 54.2665 51.8C54.8501 51.7949 55.4314 51.7245 55.9994 51.5903C58.7243 55.4263 62.2434 58.6303 66.3174 60.9846C65.5518 62.8824 63.7129 64.1274 61.6665 64.1333C60.2686 64.14 58.8947 63.7702 57.689 63.0628C58.4561 61.2051 57.6 59.0748 55.7607 58.2645C53.9215 57.4543 51.7717 58.2605 50.9188 60.0804C50.0659 61.9003 50.8218 64.0682 52.6213 64.9633C52.337 66.3775 51.8405 67.7405 51.1487 69.0062C48.3268 68.5357 45.8091 66.9594 44.1532 64.6266C43.8604 64.2362 43.3649 64.0551 42.8893 64.1648C42.4138 64.2745 42.0476 64.6543 41.9554 65.1335C41.263 67.8253 39.4623 70.0975 36.9999 71.3865C34.5393 70.0986 32.7392 67.8289 32.0456 65.1397C31.9556 64.6588 31.5899 64.2766 31.1135 64.1655C30.6371 64.0543 30.14 64.2352 29.8465 64.6266C28.1902 66.9592 25.6727 68.5357 22.8511 69.0074C22.1594 67.7412 21.6629 66.3778 21.3785 64.9633C23.178 64.0682 23.9338 61.9003 23.0809 60.0804C22.228 58.2605 20.0783 57.4543 18.239 58.2645C16.3997 59.0748 15.5436 61.2051 16.3107 63.0628C15.105 63.7702 13.7311 64.14 12.3332 64.1333C10.2868 64.1274 8.44788 62.8824 7.6823 60.9846C11.7585 58.6311 15.2798 55.4269 18.0065 51.5903Z" fill="#3A9943"/>
<path d="M36.9998 64.1333C39.0433 64.1333 40.6998 62.4767 40.6998 60.4333C40.6998 58.3898 39.0433 56.7333 36.9998 56.7333C34.9564 56.7333 33.2998 58.3898 33.2998 60.4333C33.2998 62.4767 34.9564 64.1333 36.9998 64.1333ZM36.9998 59.1999C37.681 59.1999 38.2331 59.7521 38.2331 60.4333C38.2331 61.1144 37.681 61.6666 36.9998 61.6666C36.3187 61.6666 35.7665 61.1144 35.7665 60.4333C35.7665 59.7521 36.3187 59.1999 36.9998 59.1999Z" fill="#3A9943"/>
<path d="M27.1332 61.6666C27.8144 61.6666 28.3666 61.1144 28.3666 60.4333C28.3666 59.7521 27.8144 59.2 27.1332 59.2C26.4521 59.2 25.8999 59.7521 25.8999 60.4333C25.8999 61.1144 26.4521 61.6666 27.1332 61.6666Z" fill="#3A9943"/>
<path d="M46.8666 61.6666C47.5478 61.6666 48.1 61.1144 48.1 60.4333C48.1 59.7521 47.5478 59.2 46.8666 59.2C46.1855 59.2 45.6333 59.7521 45.6333 60.4333C45.6333 61.1144 46.1855 61.6666 46.8666 61.6666Z" fill="#3A9943"/>
<path d="M54.2665 55.5C54.9477 55.5 55.4999 54.9478 55.4999 54.2667C55.4999 53.5855 54.9477 53.0333 54.2665 53.0333C53.5854 53.0333 53.0332 53.5855 53.0332 54.2667C53.0332 54.9478 53.5854 55.5 54.2665 55.5Z" fill="#3A9943"/>
<path d="M19.7333 55.5C20.4145 55.5 20.9667 54.9478 20.9667 54.2667C20.9667 53.5855 20.4145 53.0333 19.7333 53.0333C19.0522 53.0333 18.5 53.5855 18.5 54.2667C18.5 54.9478 19.0522 55.5 19.7333 55.5Z" fill="#3A9943"/>
<path d="M45.6332 33.2999C46.3144 33.2999 46.8666 32.7477 46.8666 32.0666C46.8666 31.3854 46.3144 30.8333 45.6332 30.8333C44.9521 30.8333 44.3999 31.3854 44.3999 32.0666C44.3999 32.7477 44.9521 33.2999 45.6332 33.2999Z" fill="#3A9943"/>
<path d="M28.3666 33.2999C29.0478 33.2999 29.6 32.7477 29.6 32.0666C29.6 31.3854 29.0478 30.8333 28.3666 30.8333C27.6855 30.8333 27.1333 31.3854 27.1333 32.0666C27.1333 32.7477 27.6855 33.2999 28.3666 33.2999Z" fill="#3A9943"/>
</g>
<defs>
<clipPath id="clip0_98_317">
<rect width="74" height="74" fill="white"/>
</clipPath>
</defs>
</svg>
