<svg width="74" height="74" viewBox="0 0 74 74" fill="none" xmlns="http://www.w3.org/2000/svg">
<g clip-path="url(#clip0_98_262)">
<path d="M74.0001 45.3886C73.9407 45.0157 73.7981 44.661 73.583 44.3507C73.3678 44.0405 73.0855 43.7826 72.7571 43.5964C70.9533 42.4806 66.814 41.5498 62.8191 43.5443C61.1541 44.3768 59.4776 45.377 57.9166 46.3367C57.8819 46.2673 57.8415 46.1979 57.801 46.1286C57.2749 45.3539 56.2863 44.9723 54.8641 44.9723C53.0951 44.9723 49.8229 46.7067 45.4002 49.1868C44.0628 49.9788 42.6828 50.6968 41.2666 51.3375C40.3416 51.2276 39.4398 51.1409 38.4627 51.0484C37.3065 50.9386 36.0519 50.8172 34.5026 50.6321C34.3118 49.1406 33.936 46.0592 33.2654 42.2031C32.9301 40.4687 34.0169 38.532 35.5316 36.7861C36.9463 38.3971 38.8241 39.5318 40.9082 40.0351C41.878 40.2782 42.8741 40.4005 43.874 40.3993C46.6824 40.3795 49.4207 39.5198 51.7365 37.9307C56.1013 34.9476 59.703 28.2125 62.5937 22.8012C64.328 19.5811 66.0624 16.2511 67.184 15.54C68.3055 14.8289 68.1263 13.8923 67.8546 13.4529C67.103 12.2389 63.2296 12.1059 56.2921 13.0425C53.1355 13.4761 45.3077 14.7768 40.8735 17.3668C32.3751 22.3734 30.3401 27.5129 33.9938 34.5603L34.1557 34.8378C33.4661 35.582 32.845 36.387 32.2999 37.2428L32.1958 36.7514C31.3147 32.6978 30.2009 28.6982 28.8601 24.7726C31.4616 22.8648 32.1843 19.3382 30.7621 15.0832C30.0626 12.9037 25.9579 7.51559 25.1485 6.44605C19.9454 -0.364258 19.1476 -0.144571 18.448 0.0462107C18.2737 0.0986 18.1118 0.185631 17.9719 0.302091C17.832 0.418551 17.717 0.562046 17.6339 0.723982C17.5508 0.885918 17.5012 1.06296 17.4881 1.24452C17.475 1.42607 17.4987 1.6084 17.5577 1.78059C17.7087 3.15933 17.7262 4.54943 17.6098 5.93152C17.471 9.46965 17.286 14.3143 18.766 18.87C20.1824 23.1539 22.6452 24.7264 23.9691 25.2814C24.6578 25.5707 25.396 25.7238 26.1429 25.7323C26.3246 25.7326 26.5061 25.721 26.6863 25.6976C27.9733 29.4881 29.0445 33.3485 29.8949 37.2601C31.0974 42.7234 31.7507 47.6259 32.0397 50.0945C31.6408 49.8922 31.1668 49.6204 30.6754 49.3371C25.5903 46.3107 19.9746 44.2819 14.1294 43.3593C5.0471 41.7926 0.867255 43.5675 0.693817 43.6426C0.41246 43.7653 0.191354 43.9947 0.0791395 44.2804C-0.0330746 44.5661 -0.0272047 44.8846 0.0954579 45.166C0.218121 45.4473 0.447528 45.6684 0.733213 45.7807C1.0189 45.8929 1.33746 45.887 1.61882 45.7643C1.65929 45.7643 5.33616 44.1918 13.7594 45.6371C19.3549 46.5159 24.7301 48.4587 29.5943 51.3606C30.924 52.1064 31.7969 52.6093 32.641 52.725C34.9535 53.0371 36.6879 53.199 38.2141 53.3436C40.7084 53.5295 43.1856 53.8985 45.6257 54.4478C49.9501 55.4248 52.7887 57.1707 53.6212 59.3503C54.049 60.5065 54.0432 61.7437 53.1471 62.6456C52.8939 62.8928 52.5956 63.089 52.2683 63.2237C50.5802 63.9117 46.4871 62.5242 44.1341 61.8478C42.5267 61.3069 40.8717 60.9198 39.1912 60.6915C34.217 60.5048 29.2375 60.8732 24.3449 61.79C24.0444 61.8513 23.7805 62.0295 23.6114 62.2854C23.4423 62.5412 23.3817 62.8538 23.443 63.1543C23.5044 63.4549 23.6826 63.7187 23.9384 63.8878C24.1943 64.057 24.5069 64.1175 24.8074 64.0562C29.5117 63.1932 34.2958 62.8443 39.0755 63.0156C40.5756 63.2371 42.0535 63.5892 43.4924 64.0678C45.3424 64.5996 47.2155 65.1315 48.921 65.4379C43.053 68.9934 37.636 71.6875 35.098 71.6875C30.0915 71.6875 9.27897 61.5934 1.68241 57.7084C1.41071 57.5795 1.09947 57.5615 0.814728 57.6583C0.529987 57.755 0.294152 57.9589 0.157258 58.2267C0.0203637 58.4945 -0.00681606 58.805 0.081485 59.0925C0.169786 59.38 0.36662 59.6218 0.630223 59.7665C1.78647 60.3446 28.5132 74 35.098 74C38.4627 74 45.8223 70.1497 53.1644 65.4668C53.9391 64.9523 54.3207 64.7153 54.8988 64.3568C63.5938 58.6392 71.8552 52.0659 72.8438 49.7187C73.1152 49.1437 73.2572 48.5161 73.2601 47.8803C73.8024 47.1677 74.0655 46.2816 74.0001 45.3886ZM42.0818 19.3729C47.4815 16.1932 59.1596 14.7479 64.0852 14.7479H64.7212C63.5129 16.2164 62.2121 18.6445 60.5818 21.6854C57.8126 26.9117 54.3438 33.3693 50.4299 36.0345C49.1424 36.9362 47.681 37.5592 46.139 37.8638C44.597 38.1684 43.0084 38.1479 41.4748 37.8036C39.7858 37.3961 38.2709 36.4604 37.1504 35.1326C38.3932 33.9759 39.7359 32.9312 41.1626 32.0107C41.4004 31.8378 41.5633 31.5807 41.6183 31.2919C41.6733 31.003 41.6162 30.7041 41.4586 30.4558C41.3009 30.2076 41.0547 30.0288 40.7698 29.9557C40.485 29.8826 40.183 29.9208 39.9254 30.0625C38.4963 30.9842 37.143 32.0184 35.8785 33.1554C33.4619 28.3281 33.7452 24.2812 42.0529 19.3729H42.0818ZM24.8941 23.125C23.9171 22.7203 22.1133 21.5351 20.986 18.1242C19.6101 13.9732 19.7893 9.36559 19.9223 5.98355C19.9223 5.15105 19.9858 4.39371 19.9916 3.71152C22.7724 6.85074 27.9062 13.7825 28.571 15.7712C29.5538 18.7196 29.3515 21.0148 27.9929 22.4081C27.4148 20.8645 27.0216 19.9973 26.9812 19.9048C26.8554 19.625 26.6237 19.4066 26.3369 19.2976C26.0501 19.1886 25.7318 19.1981 25.452 19.3238C25.1722 19.4495 24.9538 19.6813 24.8448 19.968C24.7359 20.2548 24.7453 20.5731 24.871 20.8529C24.871 20.8529 25.2757 21.7606 25.8769 23.3678C25.5399 23.3315 25.2093 23.2499 24.8941 23.125ZM63.8251 45.614C66.9527 44.0473 70.1844 44.7526 71.5141 45.562C71.5518 45.5849 71.5867 45.6121 71.6182 45.6429C70.2885 45.1746 68.2477 45.4579 65.5016 46.5159C63.507 47.2851 61.6156 48.2987 59.8707 49.5337C58.223 50.6148 55.9741 52.0832 51.8694 54.309C51.2223 53.9387 50.55 53.6141 49.8576 53.3378C51.5283 52.5631 53.5171 51.6034 54.3554 51.1698C55.3787 50.5917 56.5869 49.8632 57.8588 49.0712C59.7088 47.9265 61.8016 46.6257 63.8251 45.614ZM46.4813 51.1987C49.1407 49.7187 53.5344 47.4062 54.8352 47.279C55.2798 47.1974 55.7383 47.2414 56.1591 47.4062C55.0954 48.0653 54.0894 48.6781 53.2685 49.1406C52.014 49.8228 47.8457 51.7421 46.6027 52.3087L46.1518 52.1989L45.0938 51.9676C45.5274 51.7421 45.9783 51.4878 46.4929 51.1987H46.4813ZM70.7221 48.8226C69.9705 50.557 63.4955 55.7601 56.1533 60.7609C56.1697 59.9995 56.0402 59.242 55.7718 58.5293C55.3602 57.4988 54.722 56.574 53.9044 55.8237C57.5004 53.8407 59.5758 52.4879 61.1252 51.4704C62.7366 50.3251 64.4844 49.3852 66.3283 48.6723C69.5774 47.4236 70.8088 47.7184 70.9533 47.8514C70.9766 48.1896 70.9002 48.5273 70.7337 48.8226H70.7221Z" fill="#3A9943"/>
</g>
<defs>
<clipPath id="clip0_98_262">
<rect width="74" height="74" fill="white"/>
</clipPath>
</defs>
</svg>
