<svg width="74" height="74" viewBox="0 0 74 74" fill="none" xmlns="http://www.w3.org/2000/svg">
<path d="M14.9054 42.7812C14.7276 42.7814 14.5522 42.7406 14.3928 42.6619C14.2333 42.5833 14.0942 42.4689 13.9862 42.3278C13.8781 42.1866 13.8041 42.0225 13.7698 41.848C13.7355 41.6736 13.7419 41.4936 13.7884 41.3221C14.4626 38.8316 15.5381 36.4677 16.9727 34.3233L23.3194 24.7958C23.4672 24.5751 23.6865 24.412 23.9404 24.3339C24.1943 24.2559 24.4674 24.2677 24.7136 24.3672C24.9599 24.4668 25.1643 24.6482 25.2926 24.8808C25.4209 25.1134 25.4652 25.3831 25.418 25.6445L24.4121 31.1713C24.335 31.603 24.2963 32.0406 24.2964 32.4791C24.2965 33.6247 24.5679 34.754 25.0885 35.7745C25.609 36.7951 26.3638 37.6778 27.2911 38.3505C26.3972 32.9736 27.022 27.454 29.0953 22.413C31.1685 17.372 34.6078 13.0099 39.0259 9.81771L49.039 2.53334C49.2691 2.36612 49.5527 2.28956 49.8357 2.3183C50.1186 2.34704 50.3811 2.47906 50.5728 2.68912C50.7646 2.89918 50.8722 3.17254 50.875 3.45694C50.8779 3.74133 50.7759 4.01682 50.5884 4.23071C48.9035 6.14722 47.7238 8.45421 47.1567 10.9423C46.5895 13.4303 46.6527 16.0206 47.3405 18.478C47.3875 18.626 47.4042 18.7819 47.3897 18.9365C47.3752 19.0911 47.3296 19.2411 47.2558 19.3777C47.182 19.5143 47.0815 19.6347 46.9602 19.7316C46.8389 19.8285 46.6993 19.8999 46.5498 19.9417C46.4002 19.9835 46.2438 19.9948 46.0898 19.9748C45.9359 19.9548 45.7875 19.9041 45.6536 19.8255C45.5197 19.747 45.4029 19.6423 45.3103 19.5176C45.2178 19.393 45.1512 19.251 45.1147 19.1001C44.0699 15.3719 44.2824 11.4034 45.7194 7.80815L40.3857 11.6874C36.0028 14.8536 32.6721 19.2635 30.8253 24.3452C28.9784 29.427 28.7007 34.9463 30.028 40.1878C30.0782 40.3888 30.0735 40.5997 30.0143 40.7984C29.9552 40.997 29.8437 41.1761 29.6916 41.3168C29.5395 41.4576 29.3523 41.5549 29.1497 41.5985C28.9471 41.6422 28.7365 41.6305 28.5399 41.5649C26.631 40.9309 24.9702 39.7121 23.7928 38.0813C22.6155 36.4505 21.9814 34.4904 21.9805 32.4791C21.9815 31.9016 22.0341 31.3255 22.1377 30.7574V30.7343L18.8956 35.6125C17.6007 37.5499 16.6291 39.6847 16.0188 41.9337C15.9514 42.1772 15.806 42.392 15.6049 42.545C15.4038 42.6981 15.1581 42.7811 14.9054 42.7812Z" fill="#3A9943"/>
<path d="M22.0727 71.6875C17.3055 71.6841 12.7014 69.9518 9.1142 66.812C5.52704 63.6722 3.20033 59.338 2.56564 54.6132L2.37948 53.161C1.98879 50.1639 2.28949 47.1172 3.25853 44.2544C4.22757 41.3916 5.83922 38.7886 7.96995 36.6451L10.7449 33.8701C10.9203 33.6955 11.1471 33.5818 11.3919 33.5457C11.6366 33.5096 11.8866 33.553 12.1049 33.6694C12.3232 33.7859 12.4984 33.9693 12.6047 34.1928C12.711 34.4162 12.7429 34.6678 12.6955 34.9107C11.7886 39.443 12.6525 44.1505 15.1098 48.0654C15.2723 48.326 15.3246 48.6406 15.2553 48.9398C15.1859 49.239 15.0005 49.4985 14.7398 49.661C14.4791 49.8235 14.1646 49.8758 13.8654 49.8065C13.5661 49.7371 13.3067 49.5516 13.1442 49.291C10.998 45.8672 9.91747 41.8831 10.0396 37.8441L9.60142 38.2812C7.7214 40.174 6.29972 42.4722 5.44532 44.9995C4.59092 47.5268 4.3265 50.2162 4.67232 52.8615L4.85617 54.3126C5.41771 58.4814 7.47184 62.3051 10.6377 65.0748C13.8035 67.8446 17.8663 69.3724 22.0727 69.375C22.3794 69.375 22.6735 69.4969 22.8903 69.7137C23.1072 69.9305 23.229 70.2246 23.229 70.5313C23.229 70.838 23.1072 71.1321 22.8903 71.3489C22.6735 71.5657 22.3794 71.6875 22.0727 71.6875Z" fill="#3A9943"/>
<path d="M60.5757 71.6875C60.269 71.6875 59.9749 71.5657 59.7581 71.3489C59.5413 71.132 59.4194 70.8379 59.4194 70.5313C59.4194 70.2246 59.5413 69.9305 59.7581 69.7137C59.9749 69.4968 60.269 69.375 60.5757 69.375C62.909 69.3738 65.1463 68.4464 66.7962 66.7965C68.4461 65.1466 69.3735 62.9092 69.3748 60.576V56.7407C67.3407 59.0775 64.8132 60.9337 61.9747 62.1751C61.7425 62.2777 61.4828 62.301 61.236 62.2414C60.9891 62.1818 60.7687 62.0426 60.6089 61.8452C60.4491 61.6479 60.3586 61.4034 60.3516 61.1496C60.3445 60.8957 60.4213 60.6466 60.5699 60.4407C62.8592 57.2703 64.2365 53.5333 64.552 49.6355C64.5642 49.4841 64.606 49.3366 64.6752 49.2014C64.7443 49.0662 64.8394 48.9459 64.9551 48.8475C65.1886 48.6486 65.4916 48.5507 65.7973 48.5752C65.9487 48.5874 66.0962 48.6292 66.2314 48.6984C66.3666 48.7675 66.4869 48.8627 66.5854 48.9783C66.6838 49.0939 66.7585 49.2278 66.8052 49.3723C66.852 49.5168 66.8697 49.6691 66.8576 49.8205C66.631 52.6241 65.9066 55.3648 64.7185 57.9143C66.6556 56.4682 68.2918 54.658 69.5355 52.5851C69.665 52.3657 69.8634 52.1952 70.0998 52.1002C70.3363 52.0052 70.5974 51.9909 70.8428 52.0596C71.0882 52.1283 71.304 52.2761 71.4567 52.4801C71.6094 52.684 71.6904 52.9327 71.6873 53.1875V60.576C71.6863 63.5226 70.5154 66.3484 68.4317 68.432C66.3481 70.5156 63.5224 71.6866 60.5757 71.6875Z" fill="#3A9943"/>
<path d="M65.6045 46.2615C65.3217 46.2612 65.0488 46.1573 64.8374 45.9693C64.626 45.7814 64.4909 45.5225 64.4575 45.2417C64.199 43.0835 63.6109 40.9778 62.7139 38.9979L58.6219 30.0012L58.541 31.0533C58.313 34.0648 57.1411 36.9277 55.1921 39.2346C53.243 41.5416 50.6161 43.1751 47.685 43.9027C47.4702 43.9575 47.2442 43.9493 47.0339 43.8792C46.8236 43.8092 46.6379 43.6801 46.4988 43.5075C46.3598 43.3348 46.2734 43.1259 46.2497 42.9055C46.2261 42.6851 46.2664 42.4625 46.3657 42.2643L47.9971 39.0037C49.1681 36.6421 49.7165 34.0206 49.5904 31.3876C49.4644 28.7547 48.668 26.1975 47.2768 23.9586C47.1962 23.8295 47.1418 23.6858 47.1167 23.5357C47.0916 23.3857 47.0963 23.2321 47.1305 23.0838C47.1648 22.9355 47.2279 22.7955 47.3163 22.6716C47.4047 22.5477 47.5166 22.4424 47.6456 22.3618C47.9063 22.199 48.221 22.1464 48.5204 22.2155C48.8199 22.2847 49.0796 22.47 49.2424 22.7307C50.8427 25.3062 51.7589 28.2477 51.9039 31.2764C52.049 34.3051 51.4183 37.3207 50.0715 40.0374L49.7546 40.6687C51.5792 39.7236 53.1319 38.3278 54.2652 36.6137C55.3985 34.8996 56.0747 32.9243 56.2296 30.8753L56.6575 25.3484C56.6773 25.0928 56.7816 24.8511 56.9538 24.6612C57.1261 24.4713 57.3566 24.3441 57.609 24.2995C57.8615 24.2549 58.1216 24.2954 58.3485 24.4148C58.5753 24.5341 58.7561 24.7255 58.8624 24.9587L64.8183 38.0475C65.8121 40.2424 66.4641 42.5766 66.7515 44.9688C66.7867 45.2724 66.7003 45.5776 66.5112 45.8177C66.322 46.0577 66.0455 46.2132 65.7421 46.2499C65.6959 46.258 65.6496 46.2615 65.6045 46.2615Z" fill="#3A9943"/>
<path d="M34.0884 71.8112H34.0665C32.1368 71.7734 30.2501 71.2341 28.5919 70.2464C26.9337 69.2587 25.5611 67.8565 24.6089 66.1776C23.6567 64.4987 23.1578 62.601 23.1611 60.6709C23.1645 58.7408 23.67 56.8448 24.628 55.1693L26.7486 51.4577C26.8756 51.2377 27.0717 51.0656 27.3064 50.9681C27.541 50.8706 27.8013 50.8532 28.0469 50.9184C28.2925 50.9837 28.5098 51.1281 28.6651 51.3292C28.8204 51.5304 28.9051 51.7771 28.9061 52.0312C28.9058 54.4858 29.8368 56.849 31.5112 58.6438C31.713 58.8696 31.8182 59.1655 31.8042 59.468C31.7902 59.7705 31.658 60.0555 31.4362 60.2616C31.2143 60.4677 30.9204 60.5786 30.6177 60.5703C30.315 60.5621 30.0276 60.4354 29.8172 60.2175C28.5641 58.8728 27.6354 57.2591 27.1024 55.5L26.6329 56.3221C25.8746 57.6495 25.4746 59.1514 25.4723 60.6801C25.4701 62.2089 25.8656 63.712 26.62 65.0416C27.3744 66.3713 28.4617 67.4818 29.7752 68.264C31.0887 69.0463 32.5831 69.4734 34.1116 69.5033C34.4182 69.5064 34.7111 69.6311 34.9258 69.8502C35.1404 70.0692 35.2593 70.3645 35.2562 70.6711C35.2532 70.9778 35.1284 71.2707 34.9094 71.4853C34.6904 71.7 34.3951 71.8189 34.0884 71.8158V71.8112Z" fill="#3A9943"/>
<path d="M43.7363 71.7488C43.5844 71.7494 43.4339 71.7202 43.2934 71.6627C43.1529 71.6053 43.025 71.5207 42.9172 71.4138C42.8093 71.3069 42.7236 71.1798 42.6648 71.0398C42.6061 70.8998 42.5755 70.7495 42.5748 70.5977C42.5741 70.4459 42.6034 70.2954 42.6608 70.1548C42.7183 70.0143 42.8029 69.8864 42.9098 69.7786C43.0167 69.6707 43.1438 69.585 43.2838 69.5263C43.4238 69.4675 43.574 69.4369 43.7259 69.4363C45.7646 69.4265 47.7666 68.8922 49.5391 67.8848C51.3116 66.8773 52.795 65.4306 53.8465 63.6839C54.2534 63.0089 54.4453 62.226 54.3965 61.4393C54.3478 60.6526 54.0608 59.8994 53.5736 59.2798L53.5575 59.2589C52.8903 58.4242 52.4509 57.4307 52.2823 56.3755C52.1137 55.3203 52.2216 54.2394 52.5955 53.2383C51.5435 53.986 50.7174 55.0086 50.2076 56.1943C49.6978 57.3799 49.5239 58.6829 49.7048 59.9608C49.7361 60.1773 49.7053 60.3983 49.616 60.598C49.5267 60.7978 49.3826 60.9681 49.2004 61.0891C49.0181 61.2102 48.8053 61.2771 48.5866 61.2821C48.3678 61.287 48.1522 61.2298 47.9647 61.117L45.9678 59.9168C44.6576 59.1323 43.6278 57.9548 43.0248 56.5517C42.4218 55.1486 42.2763 53.5911 42.6089 52.1006C42.7524 51.4555 42.7655 50.7882 42.6476 50.1379C42.5296 49.4876 42.2829 48.8675 41.922 48.3139C41.5611 47.7602 41.0932 47.2843 40.5458 46.914C39.9984 46.5437 39.3825 46.2865 38.7343 46.1575L35.8437 45.5793C36.5835 47.3143 36.8362 49.2181 36.5746 51.0859C36.313 52.9538 35.547 54.7149 34.3591 56.1799C34.1648 56.4174 33.8842 56.568 33.5789 56.5985C33.2735 56.6291 32.9686 56.5371 32.7311 56.3429C32.4936 56.1486 32.343 55.868 32.3124 55.5626C32.2818 55.2573 32.3738 54.9524 32.5681 54.7149C33.7213 53.295 34.3554 51.5241 34.3655 49.695C34.3756 47.8658 33.7611 46.088 32.6236 44.6555C32.4776 44.4701 32.3919 44.2445 32.378 44.0089C32.364 43.7734 32.4224 43.5392 32.5454 43.3379C32.6683 43.1365 32.8499 42.9775 33.0659 42.8824C33.2818 42.7872 33.5216 42.7604 33.7532 42.8055L39.1876 43.8912C40.1371 44.081 41.0393 44.4585 41.841 45.0016C42.6428 45.5446 43.328 46.2423 43.8566 47.0537C44.3851 47.865 44.7464 48.7738 44.9191 49.7266C45.0918 50.6794 45.0726 51.6571 44.8625 52.6024C44.6351 53.6191 44.7341 54.6815 45.1453 55.6387C45.5565 56.5958 46.2591 57.399 47.153 57.9339L47.36 58.0576C47.5664 55.9785 48.4638 54.0285 49.9088 52.5194C51.3538 51.0103 53.2629 50.0291 55.3311 49.7326C55.5576 49.6994 55.7888 49.7342 55.9954 49.8325C56.2021 49.9308 56.3749 50.0883 56.4921 50.2849C56.6092 50.4815 56.6653 50.7084 56.6534 50.937C56.6414 51.1655 56.5619 51.3854 56.4249 51.5687L55.2907 53.0799C54.779 53.763 54.5074 54.5961 54.5183 55.4495C54.5292 56.3029 54.8218 57.1288 55.3508 57.7986L55.367 57.8183C56.1553 58.8081 56.6221 60.0154 56.7048 61.2782C56.7875 62.5409 56.482 63.7987 55.8295 64.8829C54.5748 66.9675 52.8047 68.6941 50.6896 69.8965C48.5745 71.099 46.1855 71.7369 43.7525 71.7488H43.7363Z" fill="#3A9943"/>
<path d="M58.9686 21.9688C58.7855 21.9686 58.6051 21.925 58.4421 21.8415C58.2792 21.758 58.1384 21.6369 58.0313 21.4883C57.9243 21.3398 57.8541 21.1679 57.8265 20.9869C57.7989 20.8059 57.8146 20.6209 57.8725 20.4471L58.2529 19.3059C58.4025 18.8583 58.4072 18.3748 58.2662 17.9244C58.1253 17.4739 57.8459 17.0794 57.4678 16.7969C56.5203 16.0776 55.8891 15.0186 55.7073 13.843C55.5254 12.6674 55.8072 11.4672 56.4931 10.4953L60.3411 5.10949C60.4979 4.89132 60.7257 4.73455 60.9855 4.6661C61.2452 4.59764 61.5208 4.62178 61.7647 4.73437C62.0086 4.84696 62.2057 5.04096 62.3221 5.28306C62.4385 5.52516 62.467 5.80025 62.4027 6.06108L61.8593 8.21633C61.7297 8.7387 61.7522 9.28726 61.9243 9.79721C62.0964 10.3072 62.4109 10.7572 62.8305 11.0942C63.4237 11.5687 63.904 12.1691 64.2366 12.8521C64.5691 13.535 64.7456 14.2834 64.7532 15.043C64.7609 15.8026 64.5995 16.5543 64.2807 17.2438C63.962 17.9333 63.4939 18.5433 62.9103 19.0296L59.704 21.7005C59.4975 21.8727 59.2375 21.9676 58.9686 21.9688ZM59.615 10.1045L58.3743 11.8389C58.0362 12.3181 57.8974 12.9099 57.9872 13.4895C58.0769 14.069 58.3882 14.5911 58.8553 14.9457C59.8164 15.665 60.4547 16.7345 60.6313 17.9219L61.4407 17.2536C61.7607 16.9867 62.0174 16.652 62.1921 16.2738C62.3669 15.8955 62.4554 15.4832 62.4511 15.0665C62.4469 14.6499 62.3502 14.2394 62.1678 13.8647C61.9854 13.4901 61.7221 13.1606 61.3968 12.9003C60.5094 12.1915 59.8827 11.2081 59.615 10.1045Z" fill="#3A9943"/>
<path d="M22.5295 21.9687C22.3015 21.9685 22.0786 21.9009 21.8889 21.7744L18.6711 19.6308C18.1118 19.2577 17.6559 18.7493 17.3458 18.1528C17.0358 17.5563 16.8816 16.891 16.8976 16.2189C16.9137 15.5468 17.0994 14.8897 17.4376 14.3087C17.7757 13.7276 18.2553 13.2415 18.8318 12.8956C19.1598 12.7009 19.411 12.3993 19.5432 12.0415C19.6754 11.6836 19.6806 11.2912 19.5579 10.93L19.1209 9.61532C19.0457 9.3873 19.0434 9.14155 19.1143 8.91216C19.1851 8.68277 19.3256 8.48113 19.5163 8.33522C19.7069 8.18931 19.9383 8.10636 20.1782 8.09789C20.4181 8.08942 20.6548 8.15584 20.8552 8.28795L24.0708 10.4316C24.6299 10.8047 25.0857 11.313 25.3958 11.9094C25.7059 12.5057 25.8602 13.1708 25.8444 13.8428C25.8286 14.5148 25.6431 15.1718 25.3054 15.753C24.9676 16.3341 24.4884 16.8204 23.9124 17.1668C23.5841 17.3614 23.3327 17.6628 23.2003 18.0207C23.0679 18.3786 23.0625 18.7711 23.1851 19.1324L23.6233 20.4459C23.6813 20.6195 23.6973 20.8044 23.6699 20.9854C23.6425 21.1664 23.5726 21.3383 23.4658 21.487C23.359 21.6357 23.2184 21.7569 23.0556 21.8406C22.8929 21.9244 22.7125 21.9683 22.5295 21.9687ZM21.9514 11.7937C21.9004 12.4243 21.699 13.0336 21.364 13.5703C21.0291 14.1071 20.5703 14.5557 20.0262 14.8786C19.7839 15.0235 19.5823 15.2275 19.4402 15.4714C19.298 15.7154 19.22 15.9913 19.2133 16.2736C19.2066 16.5559 19.2715 16.8352 19.4019 17.0856C19.5323 17.336 19.724 17.5493 19.9591 17.7056L20.8032 18.2687C20.8546 17.6382 21.0562 17.0291 21.3912 16.4925C21.7261 15.9558 22.1846 15.5071 22.7284 15.1838C22.9704 15.0387 23.1719 14.8348 23.3139 14.5909C23.456 14.3471 23.5341 14.0712 23.5409 13.7891C23.5477 13.5069 23.483 13.2277 23.3529 12.9772C23.2227 12.7268 23.0314 12.5134 22.7966 12.3568L21.9514 11.7937Z" fill="#3A9943"/>
<path d="M11.5623 31.2187C11.3653 31.2186 11.1716 31.1682 10.9996 31.0722C10.8275 30.9762 10.6829 30.8378 10.5793 30.6702C10.4758 30.5026 10.4167 30.3113 10.4079 30.1145C10.399 29.9177 10.4406 29.7219 10.5287 29.5456L10.9542 28.6958C11.0586 28.4871 11.0948 28.2508 11.0574 28.0205C11.0201 27.7901 10.9111 27.5773 10.746 27.4124C10.237 26.9043 9.90108 26.2488 9.78588 25.5389C9.67068 24.8291 9.7821 24.1009 10.1043 23.458L10.5287 22.6081C10.6657 22.3337 10.9062 22.1249 11.1972 22.0278C11.4882 21.9306 11.8059 21.9531 12.0803 22.0902C12.3548 22.2272 12.5636 22.4677 12.6607 22.7587C12.7579 23.0497 12.7354 23.3674 12.5983 23.6418L12.1728 24.4917C12.0684 24.7004 12.0322 24.9366 12.0696 25.167C12.1069 25.3974 12.2159 25.6101 12.381 25.7751C12.89 26.2832 13.2259 26.9387 13.3411 27.6486C13.4563 28.3584 13.3449 29.0866 13.0227 29.7295L12.5983 30.5793C12.5022 30.7717 12.3543 30.9335 12.1713 31.0464C11.9883 31.1594 11.7774 31.2191 11.5623 31.2187Z" fill="#3A9943"/>
</svg>
