<svg width="314" height="273" viewBox="0 0 314 273" fill="none" xmlns="http://www.w3.org/2000/svg">
<path fill-rule="evenodd" clip-rule="evenodd" d="M313.848 212.609C290.97 242.182 262.179 260.445 225.371 259.987C198.463 259.652 183.539 258.329 153.539 248.075C137.104 242.459 129.614 240.9 114.992 234.884C143.424 242.215 156.447 247.788 182.282 242.672C212.912 236.608 231.475 224.441 247.156 200.152C216.521 207.903 197.532 209.425 165.843 206.67C146.687 205.004 135.831 202.944 117.569 197.507C136.832 195.45 147.73 193.12 165.949 187.164C190.153 179.251 203.414 172.701 223.79 158.596C204.32 160.099 193.225 160.333 173.699 159.655C154.005 158.972 142.868 157.955 123.427 155.064C144.393 155.042 156.881 152.607 175.951 144.822C188.649 139.639 195.514 135.705 206.086 127.556C189.365 128.697 179.786 128.627 163.089 127.242C151.035 126.243 144.242 125.304 132.413 123.004C147.42 122.42 156.242 120.416 169.742 114.528C179.501 110.272 184.745 107.053 192.693 100.441C179.329 101.682 171.538 101.522 158.25 99.7343C149.185 98.514 144.09 97.4211 135.393 94.8292C143.733 94.4262 148.564 93.4361 156.266 90.5522C166.268 86.8063 171.685 83.3495 178.896 76.1111C170.337 77.5057 165.301 77.7545 156.622 77.2099C149.481 76.7615 145.426 76.1282 138.538 74.3842C145.841 73.0096 150.022 71.2112 155.781 66.9677C161.308 62.8948 163.985 59.7494 166.901 53.9004C159.781 56.9392 155.041 57.8809 147.151 57.825C141.59 57.7848 138.36 57.2976 133.092 55.7055C136.741 53.6754 138.583 51.7928 140.348 48.289C142.132 44.7451 142.483 42.227 141.725 38.4006C141.23 41.9521 140.252 44.0567 137.785 46.8765C132.982 52.3657 126.75 54.4718 119.085 53.1941C122.707 55.8672 125.038 57.1523 129.336 58.8449C138.233 62.3494 144.468 63.0616 154.064 61.67C147.737 65.5403 143.328 67.0697 135.736 68.0271C126.677 69.1699 120.88 68.4659 112.492 65.202C118.435 72.319 123.372 75.7944 132.505 79.2892C139.917 82.1262 144.738 82.9651 152.799 82.8213C144.685 86.2677 139.651 87.6392 130.765 88.8252C118.744 90.43 111.412 90.0873 99.6441 87.3732C110.562 95.2457 117.862 98.8485 131.133 102.912C142.341 106.345 149.165 107.476 161.006 107.857C149.223 111.73 142.172 113.242 129.707 114.567C112.335 116.415 102.01 115.999 84.8928 112.762C98.6763 121.027 107.304 124.866 122.989 129.715C138.815 134.606 148.345 136.358 165.046 137.445C148.714 142.145 139.162 144.112 122.176 146.274C99.2544 149.192 85.895 149.51 62.831 147.687C86.8896 160.663 102.725 165.864 130.461 169.898C145.02 172.015 153.472 172.481 168.211 171.977C146.73 179.206 134.507 182.236 110.821 183.632C91.4413 184.775 67.4994 182.942 40.1306 178.688C68.1657 197.302 94.2772 205.754 121.04 212.989C162.106 224.091 185.015 222.244 224.513 214.821C205.73 224.687 192.839 228.213 171.096 229.426C152.821 230.447 144.357 226.235 124.567 223.815C107.622 221.743 98.3091 220.127 81.6194 221.657C51.5066 224.417 23.5516 234.544 0 251.539C21.9892 246.088 45.1997 241.278 67.9937 242.215C93.759 243.273 107.519 247.863 132.467 255.405C157.917 263.099 212.223 279.977 253.501 268.138C286.716 258.612 300.83 240.469 313.848 212.609Z" fill="white"/>
<path fill-rule="evenodd" clip-rule="evenodd" d="M313.848 212.609C290.97 242.182 262.179 260.445 225.371 259.987C198.463 259.652 183.539 258.329 153.539 248.075C137.104 242.459 129.614 240.9 114.992 234.884C143.424 242.215 156.447 247.788 182.282 242.672C212.912 236.608 231.475 224.441 247.156 200.152C216.521 207.903 197.532 209.425 165.843 206.67C146.687 205.004 135.831 202.944 117.569 197.507C136.832 195.45 147.73 193.12 165.949 187.164C190.153 179.251 203.414 172.701 223.79 158.596C204.32 160.099 193.225 160.333 173.699 159.655C154.005 158.972 142.868 157.955 123.427 155.064C144.393 155.042 156.881 152.607 175.951 144.822C188.649 139.639 195.514 135.705 206.086 127.556C189.365 128.697 179.786 128.627 163.089 127.242C151.035 126.243 144.242 125.304 132.413 123.004C147.42 122.42 156.242 120.416 169.742 114.528C179.501 110.272 184.745 107.053 192.693 100.441C179.329 101.682 171.538 101.522 158.25 99.7343C149.185 98.514 144.09 97.4211 135.393 94.8292C143.733 94.4262 148.564 93.4361 156.266 90.5522C166.268 86.8063 171.685 83.3495 178.896 76.1111C170.337 77.5057 165.301 77.7545 156.622 77.2099C149.481 76.7615 145.426 76.1282 138.538 74.3842C145.841 73.0096 150.022 71.2112 155.781 66.9677C161.308 62.8948 163.985 59.7494 166.901 53.9004C159.781 56.9392 155.041 57.8809 147.151 57.825C141.59 57.7848 138.36 57.2976 133.092 55.7055C136.741 53.6754 138.583 51.7928 140.348 48.289C142.132 44.7451 142.483 42.227 141.725 38.4006C141.23 41.9521 140.252 44.0567 137.785 46.8765C132.982 52.3657 126.75 54.4718 119.085 53.1941C122.707 55.8672 125.038 57.1523 129.336 58.8449C138.233 62.3494 144.468 63.0616 154.064 61.67C147.737 65.5403 143.328 67.0697 135.736 68.0271C126.677 69.1699 120.88 68.4659 112.492 65.202C118.435 72.319 123.372 75.7944 132.505 79.2892C139.917 82.1262 144.738 82.9651 152.799 82.8213C144.685 86.2677 139.651 87.6392 130.765 88.8252C118.744 90.43 111.412 90.0873 99.6441 87.3732C110.562 95.2457 117.862 98.8485 131.133 102.912C142.341 106.345 149.165 107.476 161.006 107.857C149.223 111.73 142.172 113.242 129.707 114.567C112.335 116.415 102.01 115.999 84.8928 112.762C98.6763 121.027 107.304 124.866 122.989 129.715C138.815 134.606 148.345 136.358 165.046 137.445C148.714 142.145 139.162 144.112 122.176 146.274C99.2544 149.192 85.895 149.51 62.831 147.687C86.8896 160.663 102.725 165.864 130.461 169.898C145.02 172.015 153.472 172.481 168.211 171.977C146.73 179.206 134.507 182.236 110.821 183.632C91.4413 184.775 67.4994 182.942 40.1306 178.688C68.1657 197.302 94.2772 205.754 121.04 212.989C162.106 224.091 185.015 222.244 224.513 214.821C205.73 224.687 192.839 228.213 171.096 229.426C152.821 230.447 144.357 226.235 124.567 223.815C107.622 221.743 98.3091 220.127 81.6194 221.657C51.5066 224.417 23.5516 234.544 0 251.539C21.9892 246.088 45.1997 241.278 67.9937 242.215C93.759 243.273 107.519 247.863 132.467 255.405C157.917 263.099 212.223 279.977 253.501 268.138C286.716 258.612 300.83 240.469 313.848 212.609Z" fill="white"/>
<path fill-rule="evenodd" clip-rule="evenodd" d="M129.963 39.9261L140.39 27.562L148.428 39.9261L146.43 25.929L163.447 30.8751L149.959 21.7957L167.993 17.0098L149.327 17.0948L159.939 4.81643L144.828 14.0269L143.053 0L138.568 14.0269L125.237 4.81643L133.476 17.0948L114.826 17.0098L131.935 21.7957L116.692 30.8751L134.665 25.929L129.963 39.9261Z" fill="white"/>
</svg>
