<svg width="744" height="597" viewBox="0 0 744 597" fill="none" xmlns="http://www.w3.org/2000/svg">
<path fill-rule="evenodd" clip-rule="evenodd" d="M744 466.259C689.765 531.113 621.515 571.165 534.259 570.16C470.472 569.425 435.093 566.523 363.975 544.037C325.015 531.719 307.259 528.302 272.597 515.108C339.996 531.185 370.87 543.406 432.113 532.188C504.724 518.889 548.73 492.207 585.901 438.94C513.279 455.938 468.265 459.276 393.143 453.234C347.732 449.581 321.998 445.062 278.707 433.14C324.37 428.628 350.205 423.519 393.395 410.456C450.771 393.104 482.209 378.739 530.51 347.806C484.356 351.102 458.054 351.616 411.766 350.13C365.081 348.631 338.679 346.4 292.594 340.06C342.294 340.013 371.898 334.672 417.105 317.6C447.208 306.232 463.481 297.606 488.541 279.735C448.904 282.237 426.197 282.083 386.615 279.046C358.039 276.855 341.936 274.796 313.896 269.753C349.469 268.47 370.384 264.075 402.387 251.163C425.522 241.831 437.951 234.771 456.794 220.269C425.114 222.991 406.644 222.642 375.144 218.721C353.653 216.044 341.576 213.648 320.959 207.964C340.73 207.08 352.181 204.908 370.441 198.584C394.15 190.369 406.993 182.788 424.087 166.914C403.796 169.973 391.858 170.518 371.285 169.324C354.355 168.34 344.742 166.952 328.414 163.127C345.726 160.113 355.639 156.169 369.29 146.862C382.392 137.93 388.739 131.032 395.651 118.205C378.772 124.87 367.537 126.935 348.832 126.812C335.651 126.724 327.992 125.655 315.505 122.164C324.155 117.712 328.522 113.583 332.704 105.899C336.934 98.1274 337.766 92.6051 335.97 84.2139C334.796 92.0022 332.477 96.6178 326.63 102.802C315.245 114.84 300.469 119.458 282.301 116.656C290.887 122.519 296.411 125.337 306.6 129.049C327.69 136.734 342.471 138.296 365.221 135.244C350.221 143.732 339.769 147.086 321.773 149.186C300.297 151.692 286.555 150.148 266.671 142.99C280.758 158.598 292.463 166.22 314.114 173.884C331.685 180.105 343.111 181.945 362.222 181.63C342.985 189.188 331.052 192.196 309.988 194.797C281.492 198.316 264.11 197.564 236.214 191.612C262.095 208.877 279.402 216.778 310.86 225.69C337.431 233.219 353.607 235.698 381.676 236.534C353.745 245.028 337.03 248.343 307.481 251.25C266.298 255.302 241.821 254.39 201.245 247.291C233.919 265.417 254.372 273.836 291.555 284.468C329.072 295.196 351.662 299.037 391.253 301.421C352.538 311.729 329.894 316.043 289.628 320.785C235.29 327.183 203.62 327.88 148.946 323.882C205.978 352.34 243.518 363.746 309.268 372.591C343.781 377.234 363.817 378.256 398.758 377.151C347.834 393.004 318.858 399.649 262.71 402.71C216.768 405.217 160.012 401.198 95.1326 391.869C161.592 432.689 223.491 451.225 286.935 467.091C384.284 491.438 438.591 487.389 532.224 471.11C487.699 492.747 457.14 500.478 405.596 503.139C362.273 505.378 342.209 496.142 295.296 490.833C255.125 486.29 233.049 482.746 193.485 486.1C122.1 492.153 55.8307 514.363 0 551.632C52.1271 539.679 107.149 529.131 161.184 531.185C222.263 533.505 254.881 543.573 314.023 560.112C374.354 576.984 503.09 613.998 600.944 588.035C679.681 567.145 713.139 527.357 744 466.259Z" fill="#399844"/>
<path fill-rule="evenodd" clip-rule="evenodd" d="M744 466.259C689.765 531.113 621.515 571.165 534.259 570.16C470.472 569.425 435.093 566.523 363.975 544.037C325.015 531.719 307.259 528.302 272.597 515.108C339.996 531.185 370.87 543.406 432.113 532.188C504.724 518.889 548.73 492.207 585.901 438.94C513.279 455.938 468.265 459.276 393.143 453.234C347.732 449.581 321.998 445.062 278.707 433.14C324.37 428.628 350.205 423.519 393.395 410.456C450.771 393.104 482.209 378.739 530.51 347.806C484.356 351.102 458.054 351.616 411.766 350.13C365.081 348.631 338.679 346.4 292.594 340.06C342.294 340.013 371.898 334.672 417.105 317.6C447.208 306.232 463.481 297.606 488.541 279.735C448.904 282.237 426.197 282.083 386.615 279.046C358.039 276.855 341.936 274.796 313.896 269.753C349.469 268.47 370.384 264.075 402.387 251.163C425.522 241.831 437.951 234.771 456.794 220.269C425.114 222.991 406.644 222.642 375.144 218.721C353.653 216.044 341.576 213.648 320.959 207.964C340.73 207.08 352.181 204.908 370.441 198.584C394.15 190.369 406.993 182.788 424.087 166.914C403.796 169.973 391.858 170.518 371.285 169.324C354.355 168.34 344.742 166.952 328.414 163.127C345.726 160.113 355.639 156.169 369.29 146.862C382.392 137.93 388.739 131.032 395.651 118.205C378.772 124.87 367.537 126.935 348.832 126.812C335.651 126.724 327.992 125.655 315.505 122.164C324.155 117.712 328.522 113.583 332.704 105.899C336.934 98.1274 337.766 92.6051 335.97 84.2139C334.796 92.0022 332.477 96.6178 326.63 102.802C315.245 114.84 300.469 119.458 282.301 116.656C290.887 122.519 296.411 125.337 306.6 129.049C327.69 136.734 342.471 138.296 365.221 135.244C350.221 143.732 339.769 147.086 321.773 149.186C300.297 151.692 286.555 150.148 266.671 142.99C280.758 158.598 292.463 166.22 314.114 173.884C331.685 180.105 343.111 181.945 362.222 181.63C342.985 189.188 331.052 192.196 309.988 194.797C281.492 198.316 264.11 197.564 236.214 191.612C262.095 208.877 279.402 216.778 310.86 225.69C337.431 233.219 353.607 235.698 381.676 236.534C353.745 245.028 337.03 248.343 307.481 251.25C266.298 255.302 241.821 254.39 201.245 247.291C233.919 265.417 254.372 273.836 291.555 284.468C329.072 295.196 351.662 299.037 391.253 301.421C352.538 311.729 329.894 316.043 289.628 320.785C235.29 327.183 203.62 327.88 148.946 323.882C205.978 352.34 243.518 363.746 309.268 372.591C343.781 377.234 363.817 378.256 398.758 377.151C347.834 393.004 318.858 399.649 262.71 402.71C216.768 405.217 160.012 401.198 95.1326 391.869C161.592 432.689 223.491 451.225 286.935 467.091C384.284 491.438 438.591 487.389 532.224 471.11C487.699 492.747 457.14 500.478 405.596 503.139C362.273 505.378 342.209 496.142 295.296 490.833C255.125 486.29 233.049 482.746 193.485 486.1C122.1 492.153 55.8307 514.363 0 551.632C52.1271 539.679 107.149 529.131 161.184 531.185C222.263 533.505 254.881 543.573 314.023 560.112C374.354 576.984 503.09 613.998 600.944 588.035C679.681 567.145 713.139 527.357 744 466.259Z" fill="#399844"/>
<path fill-rule="evenodd" clip-rule="evenodd" d="M308.086 87.5592L332.806 60.4444L351.859 87.5592L347.124 56.8631L387.463 67.71L355.49 47.7987L398.24 37.3032L353.99 37.4894L379.148 10.5626L343.326 30.7614L339.119 0L328.487 30.7614L296.883 10.5626L316.415 37.4894L272.204 37.3032L312.761 47.7987L276.628 67.71L319.234 56.8631L308.086 87.5592Z" fill="#399844"/>
</svg>
