<svg width="74" height="74" viewBox="0 0 74 74" fill="none" xmlns="http://www.w3.org/2000/svg">
<g clip-path="url(#clip0_98_254)">
<path d="M70.2231 51.3039C66.5958 47.6847 61.1078 46.5701 56.3522 48.4195L54.2701 46.3421C54.4353 46.2176 54.5944 46.0813 54.7449 45.9312L59.9398 40.7476C60.7913 39.898 61.2602 38.765 61.2602 37.557C61.2602 36.349 60.7913 35.216 59.9398 34.3664H59.9399C58.9959 33.4245 57.7349 32.9878 56.4964 33.055C56.5273 32.8282 56.5441 32.598 56.5441 32.365C56.5441 31.0257 56.0237 29.7699 55.0786 28.829C54.1617 27.9143 52.975 27.4293 51.7718 27.3736C52.3456 25.6324 51.9424 23.6298 50.5679 22.2548C49.4442 21.1336 47.9151 20.6591 46.447 20.8288C46.4684 20.6391 46.4807 20.4473 46.4807 20.2535C46.4807 18.9142 45.9613 17.6584 45.0182 16.7174C43.066 14.7695 39.8894 14.7696 37.9372 16.7174L34.6168 20.0304L34.3598 19.774C33.1172 18.534 31.0929 18.5357 29.8477 19.7782L28.7458 20.8776L25.5346 17.6707C27.3874 12.9236 26.2695 7.44803 22.6417 3.82836C19.6214 0.814687 15.2952 -0.508599 11.0712 0.288899C10.4667 0.402642 8.62727 0.748783 8.24977 2.15618C7.88065 3.53266 9.19324 4.66098 9.82424 5.20324C9.88812 5.25816 15.0086 10.3576 15.0086 10.3576C16.3381 11.6843 16.4274 13.8195 15.2248 15.2509C13.7885 16.4523 11.6453 16.3636 10.3139 15.0351C10.3139 15.0351 5.20314 9.92594 5.14794 9.86206C4.60437 9.23265 3.47273 7.92352 2.09625 8.29308C0.689141 8.67145 0.342277 10.5058 0.22839 11.108C-0.570988 15.3259 0.755479 19.6438 3.77695 22.6585C7.40429 26.2776 12.8921 27.3921 17.6479 25.5429L21.3657 29.2523C20.9119 30.4247 20.7003 31.7151 20.7779 33.0109C20.9542 35.9192 19.4126 38.7717 15.6227 42.5495L11.6749 46.4885C10.3388 45.8031 8.65531 46.0169 7.53725 47.1323L2.00824 52.6491C1.33821 53.3175 0.969378 54.2088 0.969378 55.1588C0.969378 56.1087 1.33836 57 2.00809 57.6683L17.2763 72.9025C17.9688 73.5933 18.8784 73.9387 19.7881 73.9387C20.6977 73.9387 21.6074 73.5933 22.2999 72.9023L27.8289 67.3856C28.499 66.7171 28.8678 65.8259 28.8678 64.8759C28.8678 64.3015 28.7321 63.749 28.4774 63.2538L35.1929 56.5533C37.1834 54.5674 37.5069 54.6211 39.6152 54.973C39.9701 55.0323 40.3723 55.0995 40.8248 55.164C42.6652 55.4283 44.8022 54.4932 46.0147 53.8456L48.4653 56.2914C47.8184 57.9513 47.5181 59.7567 47.594 61.5583C47.6184 62.1409 48.0984 62.5967 48.6761 62.5967C48.6914 62.5967 48.707 62.5964 48.7225 62.5957C49.3205 62.5705 49.785 62.0654 49.7599 61.4672C49.6878 59.7499 50.0242 58.0308 50.7331 56.4956C50.9236 56.0829 50.8365 55.5951 50.5146 55.274L33.1695 37.9636C33.8749 36.6343 34.2743 35.2206 34.3182 33.8325C35.5666 34.9058 37.2087 35.7802 38.8141 36.2117C40.1288 36.5651 41.3588 36.6226 42.4634 36.394C42.4633 36.4063 42.4626 36.4184 42.4626 36.4307C42.4634 37.7682 42.9842 39.0226 43.9271 39.9608C44.814 40.848 45.9798 41.3599 47.2317 41.4173C47.1029 41.8403 47.0361 42.2852 47.0361 42.7406C47.0361 43.9485 47.505 45.0816 48.3564 45.931C49.2371 46.8097 50.3936 47.2491 51.5506 47.249C51.7267 47.249 51.9028 47.2375 52.0781 47.217L55.3369 50.4686C55.6574 50.7884 56.1429 50.8753 56.5544 50.6865C60.6443 48.8113 65.5222 49.6759 68.6917 52.8382C71.2046 55.3453 72.3073 58.9386 71.6415 62.4507C71.5301 63.0391 71.4038 63.3472 71.3224 63.4978C71.1666 63.3956 70.9109 63.167 70.4931 62.683C70.3993 62.5743 65.2174 57.3923 65.2174 57.3923C63.0667 55.2461 59.587 55.1283 57.2955 57.1243C57.2586 57.1566 57.2241 57.191 57.1917 57.2278C55.1895 59.516 55.3075 62.991 57.4604 65.1391L63.576 71.2254C63.4237 71.3069 63.1144 71.4323 62.5274 71.5429C59.0058 72.207 55.4028 71.107 52.891 68.6006C52.0943 67.8021 51.4323 66.894 50.9236 65.9014C50.6504 65.3686 49.9975 65.1583 49.4645 65.4313C48.9317 65.7044 48.7213 66.3577 48.9945 66.8904C49.6059 68.0834 50.4006 69.174 51.358 70.1335C53.7995 72.5695 57.0936 73.9011 60.4976 73.901C61.3051 73.901 62.1189 73.826 62.9287 73.6732C63.5333 73.5595 65.3727 73.2133 65.7502 71.8059C66.1193 70.4296 64.8067 69.3011 64.1757 68.7589C64.1118 68.704 58.9914 63.6045 58.9914 63.6045C57.6619 62.2779 57.5726 60.1426 58.7752 58.7112C60.2115 57.5098 62.3547 57.5987 63.686 58.927C63.686 58.927 68.7968 64.0362 68.852 64.1001C69.3957 64.7296 70.5281 66.0392 71.9037 65.669C73.3105 65.2907 73.6574 63.4563 73.7713 62.8541C74.5711 58.6367 73.2445 54.3188 70.2231 51.3039ZM49.0356 23.7888C50.1212 24.8746 50.1382 26.6517 49.0753 27.7542L45.591 31.2308C44.9928 30.364 41.7013 27.0995 41.7013 27.0995L45.0182 23.7898C46.1263 22.6842 47.929 22.6845 49.0356 23.7888ZM39.4686 18.2524C40.5765 17.1469 42.3796 17.1472 43.487 18.2524C44.0197 18.7838 44.3129 19.4946 44.3129 20.2538C44.3129 21.013 44.0197 21.7238 43.487 22.2552L40.1666 25.5682L36.1515 21.5621L39.4686 18.2524ZM18.6631 23.4935C18.3428 23.1738 17.8575 23.087 17.4457 23.2756C13.3553 25.1507 8.47769 24.2863 5.30836 21.1239C2.79547 18.6168 1.69273 15.0235 2.35857 11.5114C2.47 10.923 2.59632 10.6149 2.67768 10.4643C2.83348 10.5665 3.08915 10.7951 3.50698 11.2791C3.60078 11.3878 8.78264 16.5698 8.78264 16.5698C10.9336 18.7162 14.4133 18.834 16.7046 16.8378C16.7414 16.8057 16.776 16.771 16.8084 16.7343C18.8106 14.4462 18.6925 10.9712 16.5397 8.82306C16.5397 8.82306 10.5274 2.8924 10.424 2.73675C10.5764 2.65524 10.8856 2.52979 11.4727 2.41922C14.9938 1.75469 18.5972 2.85512 21.1108 5.36323C24.2789 8.52432 25.1454 13.3887 23.2668 17.4676C23.0769 17.8801 23.1642 18.3672 23.4855 18.688L27.2115 22.4091L23.1724 26.4391C22.913 26.6981 22.6745 26.9791 22.4536 27.2752L18.6631 23.4935ZM43.9282 32.8898C43.6475 33.1699 43.4053 33.4782 43.202 33.8074C40.893 35.2381 37.2421 33.6621 35.4253 31.9121L35.2 31.6876C33.5392 30.0325 32.6559 29.1513 32.5743 29.0678C32.5729 29.0663 32.5714 29.0652 32.57 29.0637C32.566 29.0597 32.5622 29.0554 32.5582 29.0513C32.5524 29.0455 32.5466 29.0413 32.5408 29.0361C32.1263 28.6393 31.4694 28.6323 31.0477 29.0309C30.6127 29.4423 30.5936 30.1283 31.0049 30.5633C31.0088 30.5674 31.0153 30.5742 31.0267 30.5857C31.7666 31.324 32.1577 32.3581 32.1577 33.5762C32.1577 35.4923 31.1785 37.6132 29.5383 39.2497C29.1145 39.6726 29.1138 40.3588 29.5365 40.7825C29.7484 40.9947 30.0262 41.1009 30.304 41.1009C30.581 41.1009 30.8581 40.9954 31.0697 40.7843C31.3837 40.4709 31.6748 40.1432 31.9472 39.8063L44.3997 52.2338C43.1374 52.8262 41.9155 53.1306 41.1319 53.0179C40.7037 52.9568 40.3149 52.8919 39.9719 52.8346C37.4602 52.4155 36.3346 52.3515 33.6615 55.0186L27.0632 61.6022L21.6111 56.1624C21.1874 55.7395 20.501 55.7402 20.0783 56.1641C19.6554 56.5878 19.6563 57.2742 20.0801 57.6969L26.2955 63.8984C26.2957 63.8986 26.296 63.8989 26.2961 63.8992L26.2968 63.8999L26.298 63.901C26.5573 64.1597 26.7001 64.506 26.7001 64.876C26.7001 65.246 26.5573 65.5923 26.2978 65.851L20.7685 71.3679C20.2277 71.9074 19.348 71.9072 18.8074 71.3679L3.53935 56.1339C3.28007 55.875 3.13728 55.5288 3.13728 55.1589C3.13728 54.7891 3.28007 54.4426 3.5395 54.1839L9.06851 48.6671C9.60933 48.1277 10.4891 48.1278 11.0296 48.6671L16.4969 54.1222C16.9208 54.545 17.607 54.5444 18.0299 54.1205C18.4528 53.6967 18.4519 53.0104 18.0282 52.5876L13.3297 47.8998L17.1535 44.0844C21.4283 39.8232 23.1594 36.4723 22.9418 32.8805C22.8321 31.0477 23.5072 29.1674 24.7033 27.9736L31.3788 21.3131C31.7728 20.9197 32.4367 20.9181 32.8284 21.3089L33.8492 22.3273L40.9137 29.3762C41.1043 29.5664 41.2945 29.7546 41.4821 29.9401C42.3799 30.8283 43.6741 32.1088 44.0261 32.7915L43.9282 32.8898ZM47.4688 39.2553C46.7069 39.2553 45.9936 38.9617 45.4585 38.4262C44.9252 37.8955 44.6311 37.1863 44.6305 36.4294C44.63 35.6705 44.9244 34.9584 45.4593 34.4245L49.5291 30.364C50.0829 29.8114 50.8106 29.535 51.5381 29.535C52.2658 29.535 52.9935 29.8114 53.5473 30.364C53.5478 30.3643 53.5481 30.3648 53.5485 30.3651C54.0822 30.8963 54.3763 31.6067 54.3763 32.3655C54.3763 33.1236 54.0827 33.8337 53.5484 34.366C53.5479 34.3664 53.5475 34.3667 53.5472 34.3671L49.4769 38.4283C48.9439 38.9617 48.2306 39.2553 47.4688 39.2553ZM49.8878 44.3967C49.4468 43.9569 49.2042 43.3689 49.2042 42.7409C49.2042 42.1129 49.447 41.5248 49.8881 41.0848L55.0789 35.9014C55.5379 35.4434 56.1409 35.2145 56.7438 35.2145C57.3468 35.2145 57.9498 35.4434 58.4088 35.9014H58.4089C58.8497 36.3412 59.0924 36.9293 59.0924 37.5573C59.0924 38.1853 58.8496 38.7733 58.4088 39.2131L53.2139 44.3967C52.2966 45.3116 50.8044 45.3114 49.8878 44.3967Z" fill="#3A9943"/>
</g>
<defs>
<clipPath id="clip0_98_254">
<rect width="74" height="74" fill="white"/>
</clipPath>
</defs>
</svg>
