<svg width="24" height="23" viewBox="0 0 24 23" fill="none" xmlns="http://www.w3.org/2000/svg">
<path d="M19.0531 11.6602C18.9723 11.5763 18.8758 11.5096 18.7693 11.4639C18.6628 11.4183 18.5484 11.3946 18.4328 11.3943C18.3171 11.3939 18.2026 11.417 18.0959 11.4621C17.9891 11.5071 17.8923 11.5733 17.811 11.6568C17.7297 11.7403 17.6655 11.8393 17.6223 11.9482C17.5791 12.0571 17.5577 12.1737 17.5593 12.291C17.5608 12.4084 17.5854 12.5243 17.6316 12.632C17.6777 12.7396 17.7445 12.8368 17.828 12.918C18.5672 13.6565 19.1536 14.5375 19.5529 15.5092C19.9522 16.481 20.1563 17.5239 20.1532 18.5769C20.1532 19.6588 17.0988 21.2307 12.3123 21.2307C7.52583 21.2307 4.47146 19.658 4.47146 18.5751C4.46853 17.5294 4.6699 16.4935 5.06392 15.5273C5.45793 14.5612 6.03677 13.684 6.76692 12.9466C6.8495 12.8648 6.91528 12.7672 6.96043 12.6595C7.00558 12.5517 7.0292 12.4359 7.02993 12.3188C7.03066 12.2017 7.00848 12.0856 6.96468 11.9772C6.92088 11.8689 6.85633 11.7705 6.77478 11.6877C6.69322 11.6048 6.59628 11.5393 6.48959 11.4948C6.38289 11.4504 6.26856 11.4278 6.15322 11.4286C6.03788 11.4293 5.92384 11.4533 5.81771 11.4992C5.71157 11.545 5.61546 11.6118 5.53495 11.6956C4.64233 12.5972 3.93471 13.6696 3.45307 14.8508C2.97144 16.032 2.72534 17.2985 2.72905 18.5769C2.72905 21.4497 7.66618 22.9999 12.3123 22.9999C16.9585 22.9999 21.8956 21.4497 21.8956 18.5769C21.8995 17.2898 21.65 16.015 21.1619 14.8272C20.6738 13.6395 19.9568 12.5627 19.0531 11.6602Z" fill="#4E9B4D"/>
<path d="M12.3123 12.3846C13.5185 12.3846 14.6976 12.0214 15.7004 11.341C16.7033 10.6605 17.485 9.69345 17.9466 8.56196C18.4081 7.43047 18.5289 6.18541 18.2936 4.98422C18.0583 3.78304 17.4775 2.67968 16.6246 1.81368C15.7717 0.947673 14.6851 0.357916 13.5021 0.118986C12.3191 -0.119945 11.0929 0.00268301 9.97854 0.471362C8.8642 0.94004 7.91175 1.73372 7.24164 2.75203C6.57154 3.77035 6.21387 4.96756 6.21387 6.19228C6.21573 7.83399 6.85885 9.40792 8.00213 10.5688C9.1454 11.7296 10.6955 12.3827 12.3123 12.3846ZM12.3123 1.76922C13.1739 1.76922 14.0161 2.02863 14.7324 2.51464C15.4488 3.00065 16.0071 3.69144 16.3368 4.49965C16.6665 5.30785 16.7527 6.19718 16.5847 7.05517C16.4166 7.91316 16.0017 8.70127 15.3925 9.31985C14.7833 9.93842 14.0071 10.3597 13.1621 10.5303C12.3172 10.701 11.4413 10.6134 10.6453 10.2786C9.84938 9.94387 9.16906 9.37696 8.69041 8.64959C8.21176 7.92223 7.95628 7.06707 7.95628 6.19228C7.95764 5.01963 8.41702 3.89542 9.23364 3.06623C10.0503 2.23705 11.1574 1.77061 12.3123 1.76922Z" fill="#4E9B4D"/>
</svg>
