<svg width="34" height="30" viewBox="0 0 34 30" fill="none" xmlns="http://www.w3.org/2000/svg">
<path d="M21.9909 17.5H20.9159L20.5349 17.1625C21.8684 15.7375 22.6712 13.8875 22.6712 11.875C22.6712 7.3875 18.7115 3.75 13.8266 3.75C8.94161 3.75 4.98193 7.3875 4.98193 11.875C4.98193 16.3625 8.94161 20 13.8266 20C16.0173 20 18.0312 19.2625 19.5824 18.0375L19.9498 18.3875V19.375L26.7534 25.6125L28.7808 23.75L21.9909 17.5ZM13.8266 17.5C10.4384 17.5 7.70336 14.9875 7.70336 11.875C7.70336 8.7625 10.4384 6.25 13.8266 6.25C17.2148 6.25 19.9498 8.7625 19.9498 11.875C19.9498 14.9875 17.2148 17.5 13.8266 17.5Z" fill="white"/>
</svg>
