<svg width="577" height="597" viewBox="0 0 577 597" fill="none" xmlns="http://www.w3.org/2000/svg">
<path fill-rule="evenodd" clip-rule="evenodd" d="M577 466.259C534.939 531.113 482.008 571.165 414.338 570.16C364.869 569.425 337.431 566.523 282.276 544.037C252.062 531.719 238.291 528.302 211.409 515.108C263.68 531.185 287.623 543.406 335.12 532.188C391.433 518.889 425.561 492.207 454.388 438.94C398.067 455.938 363.157 459.276 304.897 453.234C269.679 449.581 249.721 445.062 216.148 433.14C251.561 428.628 271.597 423.519 305.092 410.456C349.59 393.104 373.971 378.739 411.43 347.806C375.636 351.102 355.239 351.616 319.34 350.13C283.134 348.631 262.658 346.4 226.918 340.06C265.462 340.013 288.421 334.672 323.481 317.6C346.826 306.232 359.447 297.606 378.882 279.735C348.142 282.237 330.532 282.083 299.835 279.046C277.673 276.855 265.184 274.796 243.438 269.753C271.026 268.47 287.247 264.075 312.066 251.163C330.008 241.831 339.648 234.771 354.261 220.269C329.692 222.991 315.367 222.642 290.938 218.721C274.271 216.044 264.905 213.648 248.916 207.964C264.249 207.08 273.13 204.908 287.291 198.584C305.678 190.369 315.638 182.788 328.896 166.914C313.159 169.973 303.9 170.518 287.945 169.324C274.816 168.34 267.361 166.952 254.697 163.127C268.124 160.113 275.811 156.169 286.398 146.862C296.559 137.93 301.482 131.032 306.843 118.205C293.752 124.87 285.039 126.935 270.533 126.812C260.31 126.724 254.37 125.655 244.686 122.164C251.395 117.712 254.781 113.583 258.025 105.899C261.305 98.1274 261.95 92.6051 260.557 84.2139C259.647 92.0022 257.849 96.6178 253.314 102.802C244.484 114.84 233.025 119.458 218.935 116.656C225.594 122.519 229.878 125.337 237.78 129.049C254.136 136.734 265.599 138.296 283.243 135.244C271.609 143.732 263.504 147.086 249.547 149.186C232.892 151.692 222.235 150.148 206.813 142.99C217.738 158.598 226.816 166.22 243.607 173.884C257.234 180.105 266.096 181.945 280.916 181.63C265.998 189.188 256.743 192.196 240.407 194.797C218.308 198.316 204.828 197.564 183.193 191.612C203.264 208.877 216.687 216.778 241.084 225.69C261.69 233.219 274.235 235.698 296.004 236.534C274.343 245.028 261.38 248.343 238.463 251.25C206.524 255.302 187.542 254.39 156.073 247.291C181.413 265.417 197.275 273.836 226.112 284.468C255.208 295.196 272.727 299.037 303.431 301.421C273.406 311.729 255.845 316.043 224.617 320.785C182.476 327.183 157.915 327.88 115.513 323.882C159.744 352.34 188.857 363.746 239.849 372.591C266.615 377.234 282.154 378.256 309.252 377.151C269.759 393.004 247.286 399.649 203.741 402.71C168.112 405.217 124.096 401.198 73.7789 391.869C125.321 432.689 173.326 451.225 222.529 467.091C298.026 491.438 340.144 487.389 412.76 471.11C378.229 492.747 354.529 500.478 314.555 503.139C280.956 505.378 265.396 496.142 229.013 490.833C197.859 486.29 180.738 482.746 150.055 486.1C94.6934 492.153 43.2988 514.363 0 551.632C40.4265 539.679 83.0983 529.131 125.004 531.185C172.373 533.505 197.67 543.573 243.537 560.112C290.325 576.984 390.165 613.998 466.055 588.035C527.118 567.145 553.066 527.357 577 466.259Z" fill="#3A9943"/>
<path fill-rule="evenodd" clip-rule="evenodd" d="M577 466.259C534.939 531.113 482.008 571.165 414.338 570.16C364.869 569.425 337.431 566.523 282.276 544.037C252.062 531.719 238.291 528.302 211.409 515.108C263.68 531.185 287.623 543.406 335.12 532.188C391.433 518.889 425.561 492.207 454.388 438.94C398.067 455.938 363.157 459.276 304.897 453.234C269.679 449.581 249.721 445.062 216.148 433.14C251.561 428.628 271.597 423.519 305.092 410.456C349.59 393.104 373.971 378.739 411.43 347.806C375.636 351.102 355.239 351.616 319.34 350.13C283.134 348.631 262.658 346.4 226.918 340.06C265.462 340.013 288.421 334.672 323.481 317.6C346.826 306.232 359.447 297.606 378.882 279.735C348.142 282.237 330.532 282.083 299.835 279.046C277.673 276.855 265.184 274.796 243.438 269.753C271.026 268.47 287.247 264.075 312.066 251.163C330.008 241.831 339.648 234.771 354.261 220.269C329.692 222.991 315.367 222.642 290.938 218.721C274.271 216.044 264.905 213.648 248.916 207.964C264.249 207.08 273.13 204.908 287.291 198.584C305.678 190.369 315.638 182.788 328.896 166.914C313.159 169.973 303.9 170.518 287.945 169.324C274.816 168.34 267.361 166.952 254.697 163.127C268.124 160.113 275.811 156.169 286.398 146.862C296.559 137.93 301.482 131.032 306.843 118.205C293.752 124.87 285.039 126.935 270.533 126.812C260.31 126.724 254.37 125.655 244.686 122.164C251.395 117.712 254.781 113.583 258.025 105.899C261.305 98.1274 261.95 92.6051 260.557 84.2139C259.647 92.0022 257.849 96.6178 253.314 102.802C244.484 114.84 233.025 119.458 218.935 116.656C225.594 122.519 229.878 125.337 237.78 129.049C254.136 136.734 265.599 138.296 283.243 135.244C271.609 143.732 263.504 147.086 249.547 149.186C232.892 151.692 222.235 150.148 206.813 142.99C217.738 158.598 226.816 166.22 243.607 173.884C257.234 180.105 266.096 181.945 280.916 181.63C265.998 189.188 256.743 192.196 240.407 194.797C218.308 198.316 204.828 197.564 183.193 191.612C203.264 208.877 216.687 216.778 241.084 225.69C261.69 233.219 274.235 235.698 296.004 236.534C274.343 245.028 261.38 248.343 238.463 251.25C206.524 255.302 187.542 254.39 156.073 247.291C181.413 265.417 197.275 273.836 226.112 284.468C255.208 295.196 272.727 299.037 303.431 301.421C273.406 311.729 255.845 316.043 224.617 320.785C182.476 327.183 157.915 327.88 115.513 323.882C159.744 352.34 188.857 363.746 239.849 372.591C266.615 377.234 282.154 378.256 309.252 377.151C269.759 393.004 247.286 399.649 203.741 402.71C168.112 405.217 124.096 401.198 73.7789 391.869C125.321 432.689 173.326 451.225 222.529 467.091C298.026 491.438 340.144 487.389 412.76 471.11C378.229 492.747 354.529 500.478 314.555 503.139C280.956 505.378 265.396 496.142 229.013 490.833C197.859 486.29 180.738 482.746 150.055 486.1C94.6934 492.153 43.2988 514.363 0 551.632C40.4265 539.679 83.0983 529.131 125.004 531.185C172.373 533.505 197.67 543.573 243.537 560.112C290.325 576.984 390.165 613.998 466.055 588.035C527.118 567.145 553.066 527.357 577 466.259Z" fill="#3A9943"/>
<path fill-rule="evenodd" clip-rule="evenodd" d="M238.932 87.5592L258.103 60.4444L272.88 87.5592L269.208 56.8631L300.492 67.71L275.696 47.7987L308.85 37.3032L274.533 37.4894L294.043 10.5626L266.262 30.7614L263 0L254.754 30.7614L230.244 10.5626L245.392 37.4894L211.104 37.3032L242.558 47.7987L214.535 67.71L247.578 56.8631L238.932 87.5592Z" fill="#3A9943"/>
</svg>
